<svg id="Layer_1" data-name="Layer 1" xmlns="http://www.w3.org/2000/svg" viewBox="0 0 120 120"><defs><style>.cls-1{fill:#ff33a7;}</style></defs><path class="cls-1" d="M84.31,46.89c1.53-.7,1.53-.7,1.43-1.83l-1.43,1.83M62.39,88.8c-.65,1.3-.59,2.34.26,3.11-.1-1.22-.18-2.16-.26-3.11m38.27-28.24-2.76.15,0,.31c2.08.59,2.08.59,2.74-.46M34.59,29l.24-.21a4.85,4.85,0,0,0-3.12-2.77l2.88,3m80.8,55.29-.32.31c.8,1,1.26,2.22,2.34,3-.11-.73,0-1.35-.28-1.7a12.32,12.32,0,0,0-1.74-1.64M27.66,44.47c.07-1.7-1.06-2.89-2.41-2.49-.6.18-1.15.57-.8,1.31a3.18,3.18,0,0,0,3.21,1.18m27.49,61.36c-.45,1-1,2-1.46,3.09a10.68,10.68,0,0,0-1,2.6c-.06.44.54,1,.85,1.48.26-.32.7-.61.76-1,.34-2.11.6-4.24.86-6.2m7.54-28.25c0-.36,0-.75.05-1a9.23,9.23,0,0,0,1.55,1.22,1,1,0,0,0,1.58-.72c0-.06.2-.06.3-.11a8.76,8.76,0,0,0,2.63-1.18,1.89,1.89,0,0,1,2.38-.44c.23-.62.42-1.17.62-1.72,1.35-.12,1.35-.12,1.3-1.93l1.62-.87c-.1-.35-.2-.66-.34-1.13l1.82,0L75,67.7c.88-1,1.7-2,2.53-3H77.1c-.23-.5-.46-1-.7-1.5a3.22,3.22,0,0,0-.51-.93,8.38,8.38,0,0,0-1.11-.82c.77-.64,1.9-1,1-2.24-.49-.71-1-1.37-1.63-2.15,0,0,.24-.3.44-.57.79-1.11.56-1.78-.74-2.26A1.75,1.75,0,0,1,72.69,53c-.29-.92-.63-2-2-2.15a3.2,3.2,0,0,1-.81-.35c.22-1.59-.52-2.28-2.37-2.43-.25-.79-.48-1.52-.73-2.29l-1.92.66c0-1.77-.28-2-1.76-1.63l-2.51-3.28L59,43.68l-1.74-1.51c-1.23,1.9-1.86.17-2.56-.38-.17.11-.21.13-.23.16a2.87,2.87,0,0,0-.18.4c-.32,1.12-.57,1.19-1.44.44-.23-.19-.67-.51-.74-.45-1,.79-1-.36-1.48-.66a5.75,5.75,0,0,1-.8-.91c-.07.71-.11,1.15-.16,1.74a6.67,6.67,0,0,1-1.36-.27c-.58-.25-1-.47-1.64.06s-.33,1.08-.21,1.65.28,1.34.42,2a18.29,18.29,0,0,0-2-.82,5.18,5.18,0,0,0-.53,1l-1.24-.48L43.87,47a4.48,4.48,0,0,0-1.07.16c-.23.08-.61.39-.58.49.47,1.59-.64,1-1.35,1-.29,0-.58,0-.88.08a3.75,3.75,0,0,0,.31,1A13,13,0,0,0,41.42,51c-1,.3-1.52.67-.87,1.58a.65.65,0,0,1,0,.53c-.31.76-.72,1.48-1,2.26-.14.46-.24,1.2,0,1.48a2.74,2.74,0,0,1,.72,2.4,18.41,18.41,0,0,0,.37,3.86h.64c.15.81.29,1.54.41,2.21l1.52.18c-.14.66-.24,1.17-.29,1.41l2.27,3.86-.25.13,2.2.34c-.15,1.11.52,1.79,1.69,2.11a1.23,1.23,0,0,1,.54.46c-.52.83.21,1.15.68,1.27.25.07.67-.5,1.2-.92l1.5,2.3,1-1.09c.13,1.12.24,2,.35,2.94l3.18-2.37c-.12.61-.22,1.16-.33,1.72l.32.12.81-1.3.39.37c.19-.37.36-.68.44-.85.16.66.34,1.37.56,2.27,1-1.66,1.11-1.65,1.9-.29l1.26-.36M53.05,7.92,54,9c.09-.2.17-.29.17-.38,0-.46-.08-.92-.12-1.38.42.18,1,.24,1.24.54A19.12,19.12,0,0,1,59.8,15.5c.64,2.22,1.4,4.41,2,6.63a2.55,2.55,0,0,1-.08,1.11A10.78,10.78,0,0,1,62,25a21.28,21.28,0,0,0,0,3.66,19.6,19.6,0,0,0,2.37-3.14c1-2.08,1.77-4.27,2.58-6.43a49.76,49.76,0,0,0,1.67-4.86,27.71,27.71,0,0,1,4.11-8.51,9.69,9.69,0,0,1,1.07-1.16l2.5,1.57c.16.1.37.23.41.38a36.1,36.1,0,0,1,1,5.29,46.21,46.21,0,0,1-.21,6.44,26.94,26.94,0,0,1-.61,4.4c-.49,2-1.16,4-1.76,6a1.64,1.64,0,0,0,.82,2.2,2.32,2.32,0,0,0,1.94-.6c1.06-1.12,1.9-2.44,2.88-3.64a3,3,0,0,1,1-.52c.28-.12.65-.15.85-.36a10.83,10.83,0,0,1,6-3c1.07-.19,1.63.18,1.69,1.22s0,2.22,0,3.42c.06,0,.26.07.39,0a59.54,59.54,0,0,1,7.35-3.71c2.51-.87,4.49-2.43,6.71-3.69a18.12,18.12,0,0,1,5.25-1.55,1.3,1.3,0,0,1,1.55,1.57c-.7,2.28-.72,4.86-2.92,6.5a5.46,5.46,0,0,0-1.1,1.57,33.13,33.13,0,0,1-5.41,6.34c-1.52,1.54-3,3.15-4.59,4.58-2,1.77-4.15,3.36-6.2,5.06-.29.24-.4.68-.74,1.28a7,7,0,0,0,1.57.09,15.84,15.84,0,0,0,2.42-.6c2.6-.89,5.32-.79,8-.9a71.36,71.36,0,0,1,8.27-.09,39.41,39.41,0,0,1,6,1.33.37.37,0,0,1,.25.22,22.42,22.42,0,0,0,.17,2.32c.19,1-.39,1.41-1.08,1.87-.84.55-1.65,1.17-2.47,1.76l.07.46L117,53a9.76,9.76,0,0,1-1.56,1.76c-1.18.81-2.52,1.39-3.73,2.18a6.81,6.81,0,0,0-1.47,1.51,31.15,31.15,0,0,1-2.34,3c-.41.39-1.29.35-2,.4-1,.09-2.06.08-3.42.12,3,.89,5.75,1.72,8.49,2.5a2.31,2.31,0,0,1,1.75,1.42,4,4,0,0,0,.93,1.1c.7.74.69,1.74-.24,2.08a17.91,17.91,0,0,1-5,1.31c-3.75.25-7.4-.7-11.06-1.43a9.52,9.52,0,0,0-1.85,0c0,.12-.07.25-.1.38a10.42,10.42,0,0,0,.77.72c1.43,1.08,2.83,2.22,4.33,3.2.93.61,2,.92,3,1.48,1.41.8,2.75,1.74,4.15,2.56a9.45,9.45,0,0,1,2.93,3.13,16.47,16.47,0,0,0,3.82,3.4c.89.68,2,1.06,2.9,1.76a5.45,5.45,0,0,1,1.4,2c.31.66,0,1.14-.71,1.54a3.06,3.06,0,0,0-1.31,1.49c-.44,1.3-.83,1.71-2.11,1.16-2.61-1.12-5.16-2.4-7.72-3.64a1.62,1.62,0,0,1-.66-.73,5.46,5.46,0,0,0-3.61-2.62,4,4,0,0,1-1.36-.35c-.58-.27-1.12-.64-1.68-1-3.31-1.89-6.61-3.8-9.93-5.66a31.91,31.91,0,0,0-3.07-1.46,1.78,1.78,0,0,0-2.17.45,7.67,7.67,0,0,1-.92.71,65.31,65.31,0,0,0,3.39,5.71,18,18,0,0,1,2.27,5.33A72.16,72.16,0,0,1,91.5,97a41.57,41.57,0,0,1,.26,6.13,15.1,15.1,0,0,1,.16,2.11c-.1.94-.77,1.26-1.36.58a17.53,17.53,0,0,1-2.11-3.39C86.73,99,85.1,95.63,83.37,92.28a4.47,4.47,0,0,0-2.76-2.22c-.37-.12-.68-.46-1-.62a1.19,1.19,0,0,0-.88-.07.91.91,0,0,0-.39.77,4.47,4.47,0,0,0,1.56,3.2c.93.69,1.38,2,2,3.08a.3.3,0,0,1,.06.21c-1,1.82.74,2.84,1.28,4.19.33.83.76,1.63,1.12,2.44.87,2,1.7,4,2.59,5.95.13.28.47.47.72.69a12.35,12.35,0,0,1,1.82,1.71c.79,1.08.42,2-.85,2.52a17.82,17.82,0,0,1-2.22.8c-.33.08-.75-.16-1.12-.28-1.38-.46-2.74-1-4.14-1.34-.28-.07-.69.4-1.2.72a12.2,12.2,0,0,1-.93-1c-1-1.41-1.28-1.44-2.44-.13-2.41-1.17-3.29-3.79-5.32-5.63a11.9,11.9,0,0,1-.42,2.43,12.38,12.38,0,0,1-1.49,2.78c-.4.55-1.23.22-1.46-.53-.17-.53-.17-1.13-.39-1.64s-.74-.91-.94-1.43a20.73,20.73,0,0,1-.9-3.07c-.32-1.64-.51-3.3-.77-5-.06-.33-.29-.67-.25-1,.25-1.85-1.22-2.65-2.23-3.72-.66-.69-1.24-.55-1.53.31-.68,2-1.37,4.05-1.94,6.1-.76,2.73-1.47,5.48-2.08,8.25a13.07,13.07,0,0,1-1.47,4c-.26.45-.09,1.16-.12,2l-2-1.22c-1.62-1-1.76-1-2.85.64a12.93,12.93,0,0,1-1.25,1.43,1.12,1.12,0,0,1-1.62.12c-.6-.45-1-.22-1.38.37a3.42,3.42,0,0,1-.88,1.15c-.79.51-1.51.23-2.16-.62.9-1.08.57-2.36.24-3.65a2.48,2.48,0,0,1-.14-1c.18-1.27.61-2.57-1.08-3.24-.29-.12-.43-.6-.66-.93l-1.3.39c0-1.35,0-2.57,0-3.8-1.54.28-2.22.58-1.4-2.13a7.12,7.12,0,0,0-1.5.08.94.94,0,0,1-1.28-.73c0-.27.45-.71.78-1a16.24,16.24,0,0,1,1.5-1c-1.41-1.24-2.81.45-4.31-.43l2.61-1.39c-.64-1.52-1.19-1.53-2.27-.5A33.47,33.47,0,0,1,30,102.72c-1.2.83-2-.49-2.88-.92-.32-.15-.39-1.22-.3-1.82.22-1.31.37-2.7,1.56-3.62a.53.53,0,0,0,.17-.41c-.23-2,1.23-3.31,2.09-5L29.24,92a23.59,23.59,0,0,1-8.06,3.59,1.38,1.38,0,0,1-1.85-.75c-.31-.74-.77-1.81-.47-2.35,1.37-2.44,2.61-5,5-6.71A26.47,26.47,0,0,0,27,83.13c1.18-1.15,2.24-2.41,3.36-3.63,0-.09-.1-.19-.16-.28-2.33,1-4.72,1.92-7,3.07A14.26,14.26,0,0,1,17.7,83.9c-1.64.11-3.25.63-4.89.88-1.82.28-3.47,0-4.56-1.82a9.55,9.55,0,0,1,2.67-3.3A23.57,23.57,0,0,1,17.24,76c1.91-.85,4-1.37,6-2,.39-.13.81-.21,1.19-.36,1.14-.44,1.57-1.23,1.22-2.19a1.76,1.76,0,0,0-2.25-1c-2.08.54-4.16,1.12-6.25,1.63s-4.24,1-6.36,1.46c-.86.21-1.72.81-2.54.74a4.31,4.31,0,0,1-2.73-1.1c-1.26-1.42-.84-2.61,1.17-4,1.62-1.08,3.26-2.15,5-3.09a18.15,18.15,0,0,1,3-1.08c1.23-.42,2.46-.86,3.7-1.24,1.79-.56,3.6-1.05,5.37-1.65.36-.12.61-.6.91-.91-.44-.26-.87-.73-1.3-.74-3.31-.06-6.65.2-9.93-.11a49.61,49.61,0,0,1-7.69-1.82,11.12,11.12,0,0,1-2.25-1,1.61,1.61,0,0,1-.7-.82c-.59-1.56.5-3.18,1.85-4.05,2.07-1.31,4.52-1.3,6.74-2.61-1.72-.77-3.4-1.66-5.17-2.28a10.31,10.31,0,0,1-4.56-3.2,2.5,2.5,0,0,1-.19-2.73C2.24,40,3.75,40,5.34,40.2c2.59.31,5.19.65,7.76,1.11a20.94,20.94,0,0,1,3,1.14,3.48,3.48,0,0,0,1.71.35,3.24,3.24,0,0,1,2.11.4c.94.36,1.94.57,2.91.84,0-.14.1-.27.16-.41-1.3-1-2.58-2-3.92-2.94-3-2.09-6.07-4.08-9-6.24a9.07,9.07,0,0,1-3.46-4.83,1.19,1.19,0,0,1,.09-.85c.4-.72.86-1.4,1.38-2.24,1.06.35,2.14.72,3.24,1.06a5,5,0,0,0,1.32.24,13.42,13.42,0,0,1,6.83,2.28c3.94,2.41,7.84,4.88,11.76,7.32.41.25.86.44,1.29.65l.2-.23-3.14-3.43c-1.87-2.06-3.69-4.18-5.64-6.16a60.1,60.1,0,0,1-8.84-12,31.2,31.2,0,0,1-1.73-4c-.28-.69.13-1.07.61-1.51,1-.93,1.76-.91,2.54.26a3.71,3.71,0,0,0,1.28.93c2.35,1.35,3.92,3.55,5.8,5.4.58.56,1.19,1.08,1.78,1.61l.31-.21C24.62,16.83,23.42,15,22.5,13a43.77,43.77,0,0,1-1.67-5l.36-.4,2.7.84a7.51,7.51,0,0,1-.42-1.59c0-.63-.06-1.73.2-1.82a2.65,2.65,0,0,1,2.07.15c1.66,1.08,3.18,2.36,4.76,3.55.17.13.36.23.8.51-.05-2.36-.09-4.51-.13-6.52L34.81.46c.64.74,1.36,1.49,2,2.32,1.06,1.48,1.57,1.58,3,.38l1.69,1,.07-.09-.89-.73c.66-.45,1.76-.23,1.89.47A2.18,2.18,0,0,0,44,5.67c.63.3.89,1.41,1.27,2.17a15.57,15.57,0,0,1,.87,2c.55,1.6,1,3.22,1.55,4.83A34.21,34.21,0,0,0,49.32,19c.8-3.82,1.44-7.61,3.73-11"/></svg>