<svg id="Layer_1" data-name="Layer 1" xmlns="http://www.w3.org/2000/svg" viewBox="0 0 120 120"><defs><style>.cls-1{fill:#ff33a7;}</style></defs><path class="cls-1" d="M106.5,81.42c-.3,1.31.29,2.66-.33,4.07-.35-.35-.55-.67-.84-.81a1.16,1.16,0,0,0-.94-.06,1.39,1.39,0,0,0-.5.95,2.55,2.55,0,0,0,1,2.19,2.19,2.19,0,0,1,.61.91,1.55,1.55,0,0,1-1.67,2.16,13.93,13.93,0,0,0-2.14,0,20.66,20.66,0,0,0-2.18.47c0,.1,0,.2,0,.3a3.49,3.49,0,0,0-.55-.42c-.46-.21-1-.66-1.38-.52a2.13,2.13,0,0,0-1.49,1.89,15.53,15.53,0,0,0,.29,2.2,2.31,2.31,0,0,1-3.05.77,32.13,32.13,0,0,0-5.27-1.82,8.53,8.53,0,0,1-4.57-2.34,34.93,34.93,0,0,0-3.49-3c-.37-.3-1.1-.74-1.3-.59a7.34,7.34,0,0,0-1.48,1.74c-.13.2,0,.54,0,.82-.18,5.85-.4,11.71-.51,17.56a9.3,9.3,0,0,1-1.33,4.83,3.26,3.26,0,0,0-.22.69c-.06.21-.09.59-.18.61a1.54,1.54,0,0,1-.76-.1c-.14,0-.25-.19-.36-.31a2.66,2.66,0,0,0-4,.07c-.82.87-1.88,1.54-2.29,2.79a.68.68,0,0,1-1.11.28,3.5,3.5,0,0,1-.53-.49c-3.71-3.71-7.41-7.44-11.15-11.12a15.85,15.85,0,0,0-1.61-.95,6.24,6.24,0,0,1-.92-1.11c-.53-.69-1-1.41-1.6-2.07a.91.91,0,0,0-1.55.1,26.42,26.42,0,0,0-2.28,4.21,15.49,15.49,0,0,0-.62,3.67,3.32,3.32,0,0,1-1,2.07c-.93.88-1.84,1.79-2.72,2.72a2.13,2.13,0,0,1-1.63.71c-1.93,0-3.87.15-5.79.15a2.76,2.76,0,0,0-2.14,1c-1.2,1.25-1.22,1.23-2.39,0-.42-.41-.86-.81-1.25-1.25a2.77,2.77,0,0,0-2.52-1.16c-.76.09-1.4-.78-1.6-1.65-.32-1.39-.7-2.76-1.11-4.12a2.15,2.15,0,0,0-.55-.77c-.41-.43-.83-.84-1.25-1.25-1-1-2.06-1.78-1.81-3.54.2-1.44.25-2.85,1.22-4.08a9.06,9.06,0,0,0,.93-1.3A3.08,3.08,0,0,0,23,95.23c.09-1.69.14-3.37.16-5a2.17,2.17,0,0,1,.76-1.87c.17-.13.38-.39.36-.55a1.86,1.86,0,0,0-.36-.91c0-.06-.52.06-.66.22-.6.68-1.27.59-2.07.67-1.95.19-3.72-1-5.73-.26-.7.26-1.41-.44-1.36-1.21a8.2,8.2,0,0,0-2-5.6c-.38-.52-.2-1.5-.18-2.28,0-1,.2-2,.16-3,0-.84-1.45-1.92-2.32-1.9-.55,0-1.1,0-1.65,0-1,0-1.12-.14-1-1.17s.19-2.2.32-3.3a2.13,2.13,0,0,0-.76-1.94c-.76-.72-.72-1.23.06-2,1.51-1.51,3.06-3,4.52-4.54a7.8,7.8,0,0,1,4.34-2.41,5.52,5.52,0,0,0,3.08-1.76A3.25,3.25,0,0,1,20,55.67c2.49-.86,5-.53,7.56-.75a1.76,1.76,0,0,0,1.17-.75c.13-.21-.22-.73-.38-1.09-.06-.14-.23-.22-.33-.35a4.65,4.65,0,0,0-4.86-2,4.09,4.09,0,0,1-2-.6c-.53-.22-1-.68-1.51-.87-.85-.31-1.15-1.08-1.55-1.73A14.94,14.94,0,0,1,17,45.21c-.44-1.11-.66-2.16.48-3.24a2.24,2.24,0,0,0,0-3.2,5.8,5.8,0,0,1-.4-5.29,2.3,2.3,0,0,1,2.44-.77c1.41.6,2,.11,2.22-1.43.16-1.29-.79-1.94-1.16-2.92A2.47,2.47,0,0,1,20.34,27c0-.19.67-.34,1.05-.42a8.35,8.35,0,0,1,2-.28,5.1,5.1,0,0,1,1.76.42,1.88,1.88,0,0,0,2.2-.43,31.88,31.88,0,0,0,2.52-2.55c.87-1.05,1.88-1,3-1A3.74,3.74,0,0,1,36,24.71a5,5,0,0,1,1.17,3.61,3.31,3.31,0,0,0,2.08,2.6,1.12,1.12,0,0,0,.57-.06,3.73,3.73,0,0,0,2.11-3.59,24.17,24.17,0,0,1-.33-3.08,34.66,34.66,0,0,0-1.3-7.4,2,2,0,0,1,.56-2.27.94.94,0,0,0,.2-1.33,2.18,2.18,0,0,1,0-2.13c.38-.86,1.08-1,1.74-.4.32.28.6.61.92.9.74.68,1.29.66,2.08-.08a18.15,18.15,0,0,0,1.74-1.77,3,3,0,0,0,.6-1.41,17,17,0,0,0,.09-2.47A2,2,0,0,1,49.39,4a5.46,5.46,0,0,1,3.18-.8c.46,0,.84.1,1,.64a7.23,7.23,0,0,0,.64,1.55,2.91,2.91,0,0,0,.72.94.73.73,0,0,0,1.25-.47c.12-1.07.61-1.17,1.52-1a11.91,11.91,0,0,0,2.23,0c1.32,0,1.7.22,1.94,1.52.41,2.16,2,2.18,3.45,1.43a4.2,4.2,0,0,1,1.19-.61,2.31,2.31,0,0,1,1.41.19c1.28.81,1.5,2.2,1.6,3.61a2.69,2.69,0,0,0,.16.87c.34.71.72,1.4,1.1,2.08s.83.73,1.42.23c1.31-1.12,2.57-2.29,3.9-3.4A20.11,20.11,0,0,1,78,9.45a8,8,0,0,0,.92,2,3.27,3.27,0,0,0,4.61.06,29.45,29.45,0,0,1,2.87-1.94c.19-.12.48-.07.72-.12.45-.08.89-.19,1.34-.28,0,0,0,0,.06-.05,1.49-.83,3.89.4,4,2,0,.14,0,.3,0,.41a4.38,4.38,0,0,0,.79,1.14c.08.07.6-.33.91-.53.13-.09.26-.2.47-.37.34.33.66.63,1,1,.5.55.09,1.08-.17,1.59a6.52,6.52,0,0,1-.72,1.15c-.47.6-.77,1.19-.25,1.87a2.14,2.14,0,0,0,2.37,1c.56-.14,1.13-.2,1.67-.3.91,1.61.39,3.33.35,5,0,.21-.3.46-.49.65L92,30.12a4.14,4.14,0,0,0-.77,3.63,1.44,1.44,0,0,0,1.67,1c1.82-.29,3.65-.59,5.48-.81a8.05,8.05,0,0,1,1.77.08c.6,0,1.19.17,1.78.18,1.16,0,2.33-.13,3.48-.08a20.71,20.71,0,0,1,3,.41c.15,0,.34.49.28.68-.12.39-.46.71-.61,1.09s-.5,1.07-.34,1.41a1.7,1.7,0,0,0,1.25.91A10.2,10.2,0,0,1,114,40c.34.18.48.76.67,1.18a6.33,6.33,0,0,0,.46,1.17c.6.85.63,1.19-.18,2s-.88,1.9.52,2.16a.77.77,0,0,1,.36.18,2,2,0,0,1,.52.71,13.14,13.14,0,0,1,.2,1.44,2.52,2.52,0,0,1-.94,2.61,9.26,9.26,0,0,0-1.09,1.08c-.92,1-.91,1.91.26,2.38s1.16,1.91,1.89,2.75c.09.09-.11.63-.31.77a5.41,5.41,0,0,1-1.49.72,4.41,4.41,0,0,1-1.31.09,6.49,6.49,0,0,0-3.2.7,9.7,9.7,0,0,1-5.3,1.06,8.37,8.37,0,0,0-4.74,1,8.45,8.45,0,0,1-5.11.63c-.43,0-.87-.22-1,.25-.09.25.17.67.38.94A15.61,15.61,0,0,0,100.42,68a20.56,20.56,0,0,1,6,4.91,27.61,27.61,0,0,1,1.82,2.31c.22.28.51.68.45,1a1.26,1.26,0,0,1-1.16,1,3.61,3.61,0,0,0-2.42,2.68c0,.81.39,1.31,1.34,1.49"/></svg>