<svg id="Layer_1" data-name="Layer 1" xmlns="http://www.w3.org/2000/svg" viewBox="0 0 120 120"><defs><style>.cls-1{fill:#ff33a7;}</style></defs><path class="cls-1" d="M63.09,21.2c1.51-4.6,2.79-9.09,4.5-13.4a7.68,7.68,0,0,1,3.55-3.72c.51-.25,2.45,1.63,3.25,2.85,3,4.62,1.65,9.87,1.87,14.9.16,3.72.58,7.43.95,12l21.6-19.2,1,.5c0,2.45.57,5.08-.13,7.3-1.31,4.17-3.36,8.11-5.09,12.14-.25.58-.47,1.18-.67,1.78-1,2.88-2,5.77-2.91,8.54,8.34.37,16.77-5.47,27.07-3.39-2.2,2.27-3.89,4.26-5.84,6-4.68,4.08-8.4,9.46-15.47,10.31-1.63.2-2.93,3.25-5,5.73L105,69.72c3.32,1.54,6.66,3,9.93,4.63a7.2,7.2,0,0,1,3.38,3.33c-15.42,4.09-29-.64-42.4-6.56-.1.24-.34.56-.27.67q7,11,14,21.93c.27.43.8.81.85,1.25.7,5.74,1.32,11.48,1.51,17.4C79.91,103.15,70.21,92.21,63.9,77.81l-5.64,25.77c-4,0-5.55,2.84-7.19,6-1.23,2.39-3.53,4.24-5.36,6.32l-1.38-.31c.24-5.19-.08-10.49.89-15.55s3.26-9.81,4.93-14.71a6.92,6.92,0,0,0,.5-2.62c-.17-1.93-.23-5.33-.91-5.48-2.3-.49-5.27-.58-7.24.51-7.63,4.27-15.12,8.76-23.81,10.58a11,11,0,0,1-4.53.18,21.3,21.3,0,0,1-4.42-2.06c1.13-1.57,1.94-3.65,3.46-4.61,4.16-2.61,8.71-4.61,12.94-7.12a40.13,40.13,0,0,0,6.2-4.94c1.64-1.48,3.06-3.21,4.77-5a27.27,27.27,0,0,0-4.81-1.55q-9.22-1.18-18.5-2C11.72,61,2,55.62,1.66,53.64c-.15-1,1.52-3.3,2.28-3.26,4.87.25,9.7,1.07,14.56,1.54,2.81.26,5.65.26,8.47.25a12.18,12.18,0,0,0,3-.56c1.16-.31,3.23-.63,3.27-1.07.11-1.39-.1-3.31-1-4.19-2.84-2.79-4.9-5.74-5-9.9a3.91,3.91,0,0,0-1.69-2.82c-3.12-1.73-4.78-4.71-7-7.25-1.65-1.89-3.39-4-1.41-5.92s4.51-1.13,6.86.71A139.25,139.25,0,0,0,38.76,31.73c6.13,3.63,7.57,2.57,8.67-4.75.66-4.37-.06-8.93.13-13.39A11.71,11.71,0,0,1,49,7.78c.8-1.21,2.85-1.89,4.44-2.14C54,5.56,55,7.42,55.61,8.48s1.15,2.5,1.86,3.68c1.72,2.88,3.54,5.71,5.62,9"/></svg>