<svg id="Layer_1" data-name="Layer 1" xmlns="http://www.w3.org/2000/svg" viewBox="0 0 120 120"><defs><style>.cls-1{fill:#ff33a7;}</style></defs><path class="cls-1" d="M109.66,45.05c-1.43-.56-1.11-1.86-1.45-2.83s-.62-2-.92-3h-.43c0,.41-.24,1-.06,1.2,2.12,2.68.13,4.51-1.43,6.2-1,1-1.26,1.81-.73,3.11a14.12,14.12,0,0,1,.45,3l-2.19-.29c-1.5-.21-3.1-.84-4.49-.54-1.65.36-3.13,1.52-4.68,2.33,0,.14.1.27.16.4,2.32.43,4.67.78,7,1.35.74.18,1.35.91,2,1.4a18.6,18.6,0,0,1,2.07,1.55c1,.92,2.29,1.8,2.7,3,.78,2.26,2.55,3.44,4.19,4.82,1.29,1.09,2.71,2,4,3.15s1.27,1.74.19,3.14a9,9,0,0,0-1.88,2.7,6.33,6.33,0,0,0-.09,3.89c1.57,3.71-1.31,6.24-4.75,5.86a7.76,7.76,0,0,0-1.66-.08,17.85,17.85,0,0,0-1.85.39c-1.05-.13-2-.32-3-.37s-2,0-3,0A2.49,2.49,0,0,1,97,82.67c0-1.75,0-1.81-1.77-1.64a6.64,6.64,0,0,1-5.06-1.75,4.86,4.86,0,0,0-1.89-1c-1.34-.31-2.71-.44-4.07-.64-2.38-.35-4.69-.36-6.76,1.18-1.83,1.37-3.82,2.54-5.54,4s-3.16,3.1-2.18,5.81l-1.79-.5a19.19,19.19,0,0,0-.18,2.54A50.64,50.64,0,0,0,68.25,96c.21,1.19.78,2.32,1.11,3.5a2.41,2.41,0,0,1,.06,1.54c-.9,1.73-2.59,3.08-2.14,5.43l-.41,0,2.63,2.47c-1.17-.1-2-.1-2.84-.26a2.73,2.73,0,0,0-2.9,1.16,9.72,9.72,0,0,1-5.33,3.49,11.78,11.78,0,0,0-2.66,1.42c-1.81,1.12-3.57,2.36-5.41,3.44-1.53.89-2.46.73-3.43-.35l-.13.37a13,13,0,0,1-2.07-.73c-2.51-1.39-3.82-3.78-4.94-6.26-.48-1.07-.72-2.24-1.17-3.33a6.39,6.39,0,0,0-1-1.26c-1-1.28-2.38-2.42-3-3.87a16.94,16.94,0,0,1-.82-5.12,1.91,1.91,0,0,1,.67-1.41,4,4,0,0,0,1.24-4.87,2.15,2.15,0,0,1,.62-2.46,7.14,7.14,0,0,0,1.43-1.83c.53-1.17-.09-2.28-1.33-2.18a11.51,11.51,0,0,0-4,1.1,11.87,11.87,0,0,1-4.61,1.65,6.88,6.88,0,0,0-2.87,1.22A11.87,11.87,0,0,1,19.66,91a10.4,10.4,0,0,0-4.32,1.87,8.61,8.61,0,0,1-7.11,1.35c-.27-.07-.53-.58-.62-.93C7,90.9,6.47,88.46,5.91,86a.71.71,0,0,0-.07-.26c-1.36-1.83-1.13-3.47.27-5.24,1.17-1.49,2.2-3.06,4-3.81,2.39-1,2.69-1.54,2.59-4.22a2.68,2.68,0,0,1,.76-1.7c1.91-2,3.84-4,5.9-5.78a18.2,18.2,0,0,1,2.88-1.5c2.61-1.59,3.32-2.87,1.78-6.3-1-2.27-2.61-4.37-2.75-7.11-.07-1.21-1.46-2.29-2-3.53a19.88,19.88,0,0,1-1.75-5.23C17,35.7,15.11,30.67,9.92,27.43a64.27,64.27,0,0,1-6.08-4.76,1.58,1.58,0,0,1-.22-2.34c2.26-3.49,8.06-5.24,11.6-3.48a51.46,51.46,0,0,0,6.06,2.44,13.91,13.91,0,0,0,3.62.77c3,.2,6.1,1,9.16-.15a4.3,4.3,0,0,1,2.56,0c1.71.51,3.37,1.22,5,1.87,1.21.47,1.35.29,1.57-1,.32-1.93.83-3.84,1.27-5.76a2.89,2.89,0,0,0,.21-.79C44.49,12,45.52,10,46.51,8,48,5.13,50.15,2.9,53.57,2.52c1.76-.2,3.56,0,5.34-.07,2.6-.17,5.2-.49,7.81-.72A1.7,1.7,0,0,1,67.8,2c.14.11.06.7-.1,1-2.35,3.87-1.83,7.83-.51,11.86.3.91.31,1.91.59,2.83.41,1.35.92,2.67,1.46,4,.08.2.53.33.82.35a4,4,0,0,0,3-2.23c.71-2.51,1-2.64,3.48-2.86,3.61-.32,7.22-.71,10.8-1.23a9.59,9.59,0,0,0,3-1.29c1.93-1.05,3.8-2.18,5.71-3.24a2,2,0,0,1,1.27-.37,40,40,0,0,1,4,1.33,16.28,16.28,0,0,1,2.45,1.19,1.72,1.72,0,0,1,.76,2c-.27,1.29-.4,2.61-.57,3.92a1.79,1.79,0,0,0,0,.69,30,30,0,0,0,1.13,3.6c.8,1.8,1.78,3.52,2.66,5.28.1.19.22.47.15.63-.78,1.8.12,3.23.88,4.77s1.37,3.41,2,5.13a1.5,1.5,0,0,1,.07.81c-.39,1.63-.82,3.26-1.25,4.94"/></svg>