<svg id="Layer_1" data-name="Layer 1" xmlns="http://www.w3.org/2000/svg" viewBox="0 0 120 120"><defs><style>.cls-1{fill:#ff33a7;}</style></defs><path class="cls-1" d="M76.88,92.87c0,.82-.12,1.36-.12,1.91,0,2.53.08,5.07,0,7.6a49.7,49.7,0,0,1-.72,8.73A6.62,6.62,0,0,1,71.3,116,7.47,7.47,0,0,0,69,117.05a3.29,3.29,0,0,1-3.47.37c-4.58-1.71-9.21-3.32-13.79-5.06a4.33,4.33,0,0,1-3.11-4.72c.1-.72.76-1.34.93-2.06.56-2.33,1-4.69,1.49-7,.38-2,.71-3.91,1-5.88a15.51,15.51,0,0,0,.22-2.15c0-2.33,0-4.67,0-7,0-1.87-.28-2.2-2.13-2.16-1.17,0-2.33.34-3.49.36s-2.24-.19-3.36-.23a60.1,60.1,0,0,0-8.16-.07,4.37,4.37,0,0,0-2.71,2.44,17.69,17.69,0,0,0-.93,4.65c-.23,1.41-.35,2.84-.64,4.24-.07.33-.62.68-1,.79-2.19.6-3.56-1-5-2.08-4.31-3.19-8.63-6.4-12.81-9.77a13.44,13.44,0,0,1-5-9.51c-.34-3.57-.88-7.11-1.17-10.67-.18-2.15,0-4.32,0-6.55a3.8,3.8,0,0,1,1-.12c3.4.52,6-1.33,8.64-2.94a2.53,2.53,0,0,1,1.71-.23c2,.51,3.41-.85,5.08-1.39.15-.05.19-.45.29-.68.63-1.35,1.48-2.29,3.18-2.19a4.13,4.13,0,0,0,3.88-1.69,2.94,2.94,0,0,1,1.13-.78c.55-.26,1.59-.34,1.65-.64.28-1.47.72-3.12.3-4.45-.5-1.6-1.89-2.66-3.59-3.52-2.11-1.07-4.43-2.26-5.34-4.86-.11-.32-.89-.59-1.36-.6-3.1,0-6.2,0-9.3,0a14.28,14.28,0,0,1-1.69-.24c.1-.38.09-.62.2-.76,2.12-2.57,4.22-5.16,6.39-7.69,2.35-2.74,5.58-4.08,8.85-5.35a13,13,0,0,0,3.09-1.68c1.24-.93,2.4-1.27,3.79-.36a1.16,1.16,0,0,0,1.12-.2A2.79,2.79,0,0,1,39,13.92c.59.49,1.06,1.13,1.63,1.65a8.87,8.87,0,0,0,1.12.77l.61-1.29c.06-.14.11-.28.22-.55,1.86.17,3.81-.57,5.59.88.54.45,1.58.27,2.39.41,1.85.32,3.7.68,5.55,1a38.48,38.48,0,0,1,4.56.81A55.19,55.19,0,0,1,67.15,20c2.35,1,4.58,2.29,6.9,3.38a5.5,5.5,0,0,0,1.94.45c2.67.19,4.93.93,5.81,3.83a1,1,0,0,0,.65.6,17.88,17.88,0,0,0,4.1.37c1.66-.17,2.66.89,3.67,1.7,1.77,1.42,3.33,3.07,5.69,3.52.26,0,.49.37.68.6,1.28,1.53,2.49,3.12,3.81,4.6,2.48,2.76,5,5.44,7.52,8.21,2,2.23,1.47,4.15-1.21,5.5-2.4,1.21-4.65,2.69-7,4.05a6.07,6.07,0,0,1-1.09.59C97,58,95.37,58.46,93.74,59c-.43,1.92.94,2.89,2.1,3.64a70.12,70.12,0,0,0,8.53,4.89c1.82.85,4,.89,5.95,1.53a5.85,5.85,0,0,1,3.73,7.22,1.58,1.58,0,0,1-.66.77c-1.93,1.27-2.21,2.58-1.65,5.14.23,1,.54,2.06.87,3.3-3-.32-2.77,2.4-3.94,3.79a21.51,21.51,0,0,0-3,4.06c-1.73,3.47-4.79,5.73-7.28,8.5a7.63,7.63,0,0,0-.81,1.67c-.75-.48-1.46-1-2.22-1.4s-1.64-.72-2.46-1.1c-3.59-1.67-8-1.31-10.89-4.77a16.82,16.82,0,0,0-3.32-2.7,7.67,7.67,0,0,0-1.85-.66"/></svg>