<svg id="Layer_1" data-name="Layer 1" xmlns="http://www.w3.org/2000/svg" viewBox="0 0 120 120"><defs><style>.cls-1{fill:#ff33a7;}</style></defs><path class="cls-1" d="M36.08,13.14c-.2-1.82-1-3.45-.86-5.06,1.07-.14,2-.28,2.86-.36S41.14,9,41.65,9.84c.62,1.08,1.37,2.08,2,3.13a4.7,4.7,0,0,1,.5.94,29.9,29.9,0,0,0,4.2,7.6A11,11,0,0,1,49.87,25c.35,1.1.39,2.29.71,3.4a6.34,6.34,0,0,0,1,1.81c.07.1.58,0,.81-.15s.3-.42.66-.55c0,.26-.08.51-.11.77l.17.14c.21-.33.65-.69.61-1-.22-1.53,1.06-2,1.88-2.78a2.64,2.64,0,0,1,2.14-.85c1,.08.67-1,.62-1.51A1.29,1.29,0,0,0,57,23.09c-.35,0-.69,0-1,0,0-.13,0-.26,0-.39a14.87,14.87,0,0,1,2,.1c1.1.21,2.17.61,3.27.77s1.84-1.06,1.64-2.27a8,8,0,0,0-.5-1.57.87.87,0,0,1,.46-1.28,1.23,1.23,0,0,0,.8-1.64,2,2,0,0,1,.11-.93c.08-.37.34-.76.3-1.11-.3-2.22,1-3.63,2.35-5.11a14.33,14.33,0,0,0,2.1-3.21c.18-.36-.11-1.11-.4-1.52s-1-.33-1.48,0a4.31,4.31,0,0,1-1.15.29,5.75,5.75,0,0,1,0-1.18A3.23,3.23,0,0,1,68,1.25a1.07,1.07,0,0,1,.66,0c1,.48,1.51,0,1.93-.84a8.77,8.77,0,0,1,.49-.84c.53-.87.89-.95,1.81-.41a14.58,14.58,0,0,1-2.7,7.69,3.78,3.78,0,0,0,.2,4.21c.49.68,1.1,1.29,1.53,2a9.45,9.45,0,0,1,1.21,5.41c0,.82.14.95,1,.73.43-.11,1.2-.26,1.29-.1a3.67,3.67,0,0,1,.53,1.86,9.15,9.15,0,0,1-.57,2.32c-.2.63-.58.79-1.16.3a4.25,4.25,0,0,0-1.29-.83,2.68,2.68,0,0,0-1.14.1c0,.41,0,1,.18,1.2a19.75,19.75,0,0,0,2.47,2.18,1.88,1.88,0,0,1,.85,1.8c0,.72.34,1.49.2,2.17-.34,1.65.06,3.39-.67,5a2,2,0,0,0,0,1,9.78,9.78,0,0,1-.46,4c-.07.26-.11.71,0,.79a1.07,1.07,0,0,0,.89.07A21.05,21.05,0,0,0,79,39.1a27.83,27.83,0,0,1,7.52-3.55c2.64-1,5.4-1.59,8.07-2.49a14.94,14.94,0,0,1,7-.63c.31,0,.64-.12.94-.08a16.06,16.06,0,0,1,2.4.42,1,1,0,0,1,.34.87,3.08,3.08,0,0,1-1.08,1c-.68.4-1.49.6-2.13,1.05-1.4,1-2.74,2.07-4.08,3.13-.55.44-.24,2,.47,2.48s1.26.94,2.07,1.54c-.59.25-1,.41-1.4.6-2.43,1.12-4.84,2.28-7.28,3.38-2.19,1-4.4,1.93-6.6,2.87a6.65,6.65,0,0,0-3.27,2.61,4.87,4.87,0,0,1-1.38,1.19c-1.9,1.36-3.82,2.69-5.72,4-.5.36-1,.77-1.45,1.14-2.4,1.82-4.82,3.62-7.2,5.47a17.38,17.38,0,0,0-1.78,1.76l-4.18,4.23-4,4.11a3.12,3.12,0,0,1-.86.77c-2.44,1-4.14,3-6.12,4.64A6,6,0,0,0,48,81.41a41.91,41.91,0,0,0-2.39,4.28c-1.78,4.17-3.46,8.39-5.14,12.6-.43,1.07-1.09,2.27-1,3.31.29,2-.77,3.56-1.42,5.23a11.2,11.2,0,0,1-1.9,3.09,10.27,10.27,0,0,0-1.67,3.54,18.23,18.23,0,0,1-1,2.51,1.67,1.67,0,0,1-2.93.39,1.26,1.26,0,0,1-.25-.94,10.14,10.14,0,0,1,1.66-4.3c.82-1.08.71-1.43-.2-2.51a1.1,1.1,0,0,1-.15-.8,55.41,55.41,0,0,1,1.25-5.46c.8-2.49,1.82-4.91,2.72-7.37,1.3-3.52,2.66-7,3.84-10.58a21.11,21.11,0,0,0,.63-4.15A41,41,0,0,0,40.55,75c0-1.55-.48-3.09-.65-4.65-.21-2-.39-4.07-.45-6.11-.06-1.67,0-3.35.13-5,.08-1.34.25-2.68.44-4a32,32,0,0,0-.11-8.79,30.08,30.08,0,0,1-.38-5.09,9,9,0,0,1,1-2.69c.09-.22.27-.45.26-.67a6.67,6.67,0,0,0-.22-2.43c-.92-2-.6-4.29-1.24-6.37-.46-1.49-.59-3.08-.94-4.61A17.58,17.58,0,0,0,37.57,22c-.75-1.87-1.47-3.75-2.36-5.55-.71-1.44-1.64-2.77-2.47-4.14-.1-.16-.33-.39-.29-.46.55-.93-.16-1.69-.26-2.54,0-.28.19-.58.29-.88.28.18.64.3.8.54.76,1.19,1.45,2.42,2.19,3.62a2.9,2.9,0,0,0,.61.6"/></svg>