<svg id="Layer_1" data-name="Layer 1" xmlns="http://www.w3.org/2000/svg" viewBox="0 0 120 120"><defs><style>.cls-1{fill:#ff33a7;}</style></defs><path class="cls-1" d="M20.55,61.07c.05.15.09.3.14.45l6.49-2.73L27,58.3l-6.42,2.77M108.78,50.3c0-.25-.06-.5-.1-.75l-4.46.59c0,.3.08.6.13.9l4.43-.74M72.63,89.09l-.54.56c.54,2.6,1.53,3.36,2.61,3.29l-2.07-3.85M58.32,78.89c.35-2.09.6-3.52.78-4.63l-1.67-1.54c.57-.39.76-.37,1-.32s.44.16.66.24c-1.4-.54-1.84-.36-1.72.85.17,1.63.59,3.23,1,5.4m-30-23.8c0-.23,0-.46,0-.69l-7.83-.57c0,.26-.05.51-.07.77l7.89.49M33.23,53c0-.28,0-.57.05-.86l-8.16-.47c0,.23,0,.46-.05.68l8.16.65m7.32,6.61,1.73-2.19-2.64-1.53-.73,2.72,1.64,1M38.8,56.33c-.69-2.13-1.86-2.9-3.59-2.82a4,4,0,0,0-1,.31c.17.37.25,1,.53,1.08,1.23.51,2.52.89,4.1,1.43m8.86-11.86.61-.5c-.33-.67-.59-1.86-1-1.91a22.56,22.56,0,0,0-4.09.2c0,.14,0,.29,0,.44l4.49,1.77M30.37,58.56c0,.28-.09.56-.14.84L38.82,61l.15-.93-8.6-1.53M77.86,31.85l.53.27c1.75-3.69,4.57-6.84,5.5-10.94l-.5-.25L77.86,31.85M65.73,56.68l6.35,4.38.15-.17L68.3,56.58l1.52-1.94-.52-.4-3.57,2.44m34.82-11.29c-1.79,1.68-3.41.59-5.09,0-1.31-.48-2.62-.54-3.51,1.3,3.12.56,6.08,1.89,8.6-1.27m-8.8,47.92c-.61-.64-1.18-1.31-1.84-1.9-.39-.36-1-.49-1.34-.86a23.78,23.78,0,0,0-7.39-5.18c-2.05-.91-2.31-3.19-2.41-5.05-.2-3.46-6.18-5.78-9.54-4.16-1.06.51-1,3-.07,4.22,2,2.52,3.94,5,5.83,7.61.38.52.26,1.41.64,1.92a22.43,22.43,0,0,0,2.47,2.6,4.19,4.19,0,0,0,1,.54c-.23.23-.65.46-.64.68a3.83,3.83,0,0,0,.39,1.47,10,10,0,0,1,0,9.26,17.08,17.08,0,0,0-.87,4.17c.13,0-.08.06-.1,0-1.41-2-2.91-3.86-4.13-5.93-.42-.72-.06-1.86-.16-2.8A18.76,18.76,0,0,0,73,97.58c-.14-.55-.39-1.08-.49-1.63-.38-2.14-.07-4.53-2.35-5.91a1.42,1.42,0,0,1-.4-.7c-1-2.7-1.93-5.41-2.86-8-2.69.06-3.57,1.36-3.7,4s-.79,5.31-1.2,8c-.08.52-.1,1-.15,1.52-.2.1-.35.23-.43.2a6,6,0,0,1-3.37-7.29c.9-3-1.4-6.91-4.34-6.84-.28,2.33-.51,4.71-.85,7.07-.11.74-.3,1.82-.81,2.09-2.44,1.31-3.39,3.69-4.74,5.84-.89,1.41-2.18,2.57-3.18,3.91a9.22,9.22,0,0,0-.84,2l-.68-.38c2.75,2.24-.67,4-.11,6l-.54,0a2.23,2.23,0,0,1-.23-.62c-.1-2.08-.23-4.17-.22-6.26A6.63,6.63,0,0,1,42,98c.85-1.92,2.49-3.67.82-5.93a1.68,1.68,0,0,1-.2-.79c-.44-3.53-1-3.87-4.5-2.68-1.11-4.42-4.07-5.19-7.46-2a29.26,29.26,0,0,1-2.89,2.15l-.76-.52c.27-.86.28-2.09.87-2.51,2.49-1.75,1.82-4.56,2.63-6.86.32-.92.51-1.89.74-2.83.17-.68.31-1.37.45-2L31,73.65c-.61,1.12-1.21,2.24-2,3.68a9.59,9.59,0,0,0-1.91.16,5.06,5.06,0,0,0-1.67.91,23.48,23.48,0,0,1-3.28,2.26c-.54-3.4-1.06-6.58.37-9.54a5.57,5.57,0,0,1,2.62-2.33c1.74-.8,1.37-2.16,1.3-3.45s-1.21-1.2-2.14-1.21a16.27,16.27,0,0,0-8.67,2.25,3.08,3.08,0,0,1-2.24,0c-2.21-.78-4.28-1.54-6.45.28a3.29,3.29,0,0,1-2.61.09c-.54-.17-.84-1-1.25-1.61a6.42,6.42,0,0,1,1.77-.86,17.64,17.64,0,0,0,4.38-.8c.41-.33.77-.82,1.24-1,.69-.21,1.61.05,2.18-.3.94-.59,2.19-1.4,2.36-2.3a3.33,3.33,0,0,0-1.4-2.87c-1.35-.66-3-.63-4.6-.84-.72-.09-1.54.16-2.17-.11a5.64,5.64,0,0,1-3.69-5.57l7.17,1.16c-.18.36-.32.62-.46.88l.37.3c.43-.42,1.09-.77,1.24-1.27.42-1.37.91-1.52,1.88-.47a13.82,13.82,0,0,0,1.69,1.34l-5,.75c0,.19.05.38.08.56l10.38-.56.1-.25-3-.67,6.65-1.86c0-.2,0-.4-.07-.6l-1.53-.38c.51-2.81,0-3.76-2.45-5.24-1.16-.72-3-1.1-2.4-3.33.1-.32-.93-1-1.52-1.45a8.44,8.44,0,0,1-2-1.56l4.22,1c3.11,2.71,6.26,5.77,9.76,8.38,2.33,1.74,5.36,1.81,8.12,1.1,2-.51,1.72-2.48,1.57-4.1s-.84-2.7-2.62-2.79c-1.53-.07-3.05-.18-4.79-.29.24-.64.27-1.14.53-1.3,1.55-1,3.15-2,4.74-2.94,1.87-1.11,2.21-2.76.71-4.31a5.32,5.32,0,0,1-1.52-5,5.73,5.73,0,0,1,.64-1.32,4.9,4.9,0,0,1,1.07.87,8.35,8.35,0,0,1,.7,1.65c-.55-.29-1.1-.56-1.65-.84l-.51.39,2.34,4,.63-.22c-.29-1.14-.58-2.27-.88-3.41,1.5,1.62,2.89,3.35,4.52,4.82.95.86,2.13,1.75,3.68.77.35-.22,1.15.29,1.75.46l3,.85.24-.53c.17.55.34,1.09.61,2,.36-.77.56-1.21,1-2.26.66,1.21,1.13,2,1.56,2.9a18,18,0,0,1,1.78,3.77,38.32,38.32,0,0,1,.66,5.77c.1,1.33.57,2.2,2.14,2.23,1.14-4-.67-8.47,2.17-12.34l.86,2.29c2.18-1.6.24-3.38.52-4.94l-.3.93-.52,0a76.57,76.57,0,0,1,.06-8c.27-2.6,1.58-5.15.31-7.7l-.84-.07c-.2,1.13-.39,2.26-.59,3.39l-.21,0c.17-1.52.33-3,.52-4.72l2.33.25c0,4.75,0,9.4,0,14,0,1.2.4,2.38.53,3.58a17.3,17.3,0,0,1,.19,3.21c-.2,2.41-.67,4.81-.74,7.22a14.61,14.61,0,0,0,.8,4.07c.33,1.22,1,2.34-.41,3.41-.32.24,0,1.27,0,1.93l.62,0c.22-.78.41-1.58.69-2.35,1.19-3.29,4.13-5.42,5.72-8.47a16.28,16.28,0,0,1,2.66-3c.45-1,1-2.25,1.49-3.49.62-1.63,1.16-3.29,1.75-4.93a5.79,5.79,0,0,1,.31-.67c1.12-2.3,2.37-4.55,3.27-6.93.32-.84-.25-2-.49-3.51.36,0,1.11.32,1.6.08a4,4,0,0,0,1.61-1.66,39.88,39.88,0,0,1,2.11-4.36c.38-.54,1.71-.66,2.55-.55s1.31.86.53,1.78a21.19,21.19,0,0,0-3,4.26L85.83,21l.3.23a11.41,11.41,0,0,1-1.47,2.26,8.46,8.46,0,0,0-2.5,6.14A8.45,8.45,0,0,1,81,32.22l2.43.66.31.67-5.8,4.6c.19.26.39.52.59.77l6.09-.8c-.86.76-1.25,1.11-1.65,1.45,0,.11.08.21.13.32l1.67-.6v1.53c1.28-1.67,2.5-2.79,4.48-2l-1.56-.74c.75-1.57,3.32-2,2.63-4.31A35.2,35.2,0,0,0,88,36.5c-1.1,1.54-2.38,1.43-3.91.78s-1.85-1.38-.68-2.43a8.89,8.89,0,0,1,3.44-1.66c.91-2,2.75-2.69,5.1-2.7l-.45-1.37c1.08-.89,6,.15,7.58,1.76L97,32.3c.06.14.13.27.19.4l1.64-.85,2.5,2.16-2,2.8.18.09-.06,0a7.53,7.53,0,0,1-.5.87c-1.18,1.66-.8,2.54,1.17,2.79.5.07,1.35.2,1.41.47.69,2.64,2.81,1.9,4.52,2,2.64.11,5.3-.06,7.93.2a4.26,4.26,0,0,1,2.87,1.64c.33.5-.3,2.06-.94,2.7-2.43,2.41-5.1,4.58-7.52,7a11.94,11.94,0,0,0-1.88,3.27c-.74,1.52,1,2,1.3,2.95.73,2.18,2.29,2.78,4.16,3.23a.48.48,0,0,1,.32.23c.4,1.1.79,2.21,1.28,3.62-2.77-.37-5.45-.89-8.16-1a36.65,36.65,0,0,0-8.51.1c-2.59.45-5,1.75-7.51,2.75-.33.14-.48.75-.78,1.26C91.11,72,93.64,73,94.67,75.5l-2.09,1.33c2.32,3.61,4.89,6.68,6.35,10.2.92,2.22.17,5.13.17,8.08-1.6-1.91-2.58-3.66-2.58-6,0-2.89-4-6.79-6.6-6.64-1.49,3.55.07,5.94,2.62,7.4-.11,1.12-.13,1.83-.27,2.53a3.26,3.26,0,0,1-.55.89Z"/></svg>