<svg id="Layer_1" data-name="Layer 1" xmlns="http://www.w3.org/2000/svg" viewBox="0 0 120 120"><defs><style>.cls-1{fill:#ff33a7;}</style></defs><path class="cls-1" d="M24.72,89.1c.44-.18.93-.35.69-.93l-.69.93M54.85,24.86l-.29.05c0,.39.11.77.16,1.16L55,26c-.05-.39-.09-.78-.14-1.17M76.67,37.49l1-.16-.45-.65-.5.81m-19.84.91h-.16v2.51h.16Zm3.41,1.15c-.36.77-.16,1.34.49,1.57-.17-.56-.33-1.07-.49-1.57M31.12,60.38c.11-.63-.21-.77-.55-.75-.16,0-.43.33-.41.45.15.71.65-.07,1,.3m-11-6.82c0,.06,0,.12,0,.18,1.21.49,2,.59,2.29.26l-2.27-.44m12.25-3-.23.27a5.22,5.22,0,0,0,.43.39c.31.22.62.44.94.64a7.18,7.18,0,0,0,.68.34l.11-.19L32.4,50.56m-9,42.93c-1.34.76-1.59,1.14-1.21,2l1.21-2M49.2,44.68c0-.42,0-.8-.09-1.17,0-.13-.23-.35-.31-.33a3.51,3.51,0,0,0-.73.3,2.9,2.9,0,0,0,.27.41c.27.27.56.52.86.79m33.76,1v.11h3.35l0,0-1.11-.19c.22-.28.36-.48.62-.82L83,45.64m.25-.83.09.1,2-1.28a1.34,1.34,0,0,1,.11.14V42.66l-.18-.09-2,2.24M26,89.09c-.2,0-.49,0-.61.14a9.31,9.31,0,0,0-1,1.26c-.05.09.06.34.16.46a.45.45,0,0,0,.39.07,5.88,5.88,0,0,0,.65-.92,7.54,7.54,0,0,0,.4-1m13.63-9.77a4.92,4.92,0,0,0,.51-.53,4.69,4.69,0,0,0,.42-.8s-.18-.23-.27-.23c-.4,0-.9-.19-1.11.39a.94.94,0,0,0,.45,1.17M36.21,37.61l-.11-.08c-.11.14-.22.28-.32.43s-.34.66-.8.26a.69.69,0,0,0-.54.26c-.28.66,0,1,.88,1.21.3-.69.59-1.38.89-2.08M43,30.82l1.12-2.45a.59.59,0,0,0-.28.23c-.38.49-.67,1.14-1.51.78,0,0-.35.27-.35.42,0,.66.6.79,1,1m42.26,56.8h-.11c-.22.59-.46,1.18-.66,1.78a.87.87,0,0,0,0,.5,2.89,2.89,0,0,0,.28.76,1.73,1.73,0,0,0,.44.41c.1-.18.3-.36.29-.53,0-.46-.15-.9-.19-1.35s-.06-1-.09-1.57m1.7,13.18c-.31,1.07,0,2.67.44,3,1-.35.59-1,.36-1.6a3.1,3.1,0,0,0-.23-.6c-.15-.25-.34-.48-.57-.79m-48-56.14a1,1,0,0,1,.08-.14c-.38-.33-.74-.68-1.13-1s-.72-1-1.39-.42c0,0-.08,0-.12,0l-.56.19c.09.16.14.38.27.48a3.21,3.21,0,0,0,.82.38c.55.16,1.1.29,1.65.43l.38.08m10.65-7.51c-.57.08-.69.48-.76,1a4.58,4.58,0,0,1-.26,1c-.45,1.18-.89,2.37-1.38,3.53-.17.4,0,.53.2.59.65-1.54,1.27-3,1.91-4.51.22-.5.58-1,.29-1.6m7.25,5.48c0,.45,0,.9-.11,1.34a1,1,0,0,1-.38.51s-.32-.09-.32-.14a1.65,1.65,0,0,1,.15-.51,3.86,3.86,0,0,1,.25-.43l-1.12.6c0,.47-.07,1.06-.08,1.65a.43.43,0,0,0,.26.31c.59.18,1-.17,1-.82a3.89,3.89,0,0,1,.11-.43l.13,0c0,.15.09.31.14.48.38-.27.38-.27,0-2.59M36.63,37.25l3.42.23-.59-1.91-.16.35-.87-.33c.08.35.13.55.16.67-.36.51-1.43-.55-1.32.74l-.64.25M58.6,41a8.54,8.54,0,0,0-.67,3.77,12.48,12.48,0,0,0,1.36-.52c.12-.06.19-.4.15-.58-.14-.59-.33-1.17-.5-1.76-.09-.27-.2-.53-.34-.91m30.55,6.3,2.19-2.55c-1.48.1-2.68,1-4.16,1.51l2,1M34.42,79.8c.76.48.84-.44,1.29-1,.07.43.12.68.16.92.4-.46.78-.89,1.17-1.32l.13.12c0,.12,0,.24,0,.48.57-.42.77-1.21,1.67-.91-.13-.18-.14-.24-.17-.24a10.78,10.78,0,0,0-3.88.23.62.62,0,0,0-.33.42,10.63,10.63,0,0,0,0,1.27M64.26,25.47l-.16-.13a4.34,4.34,0,0,0-.48.58,1.72,1.72,0,0,1-1.25,1,.74.74,0,0,0-.48.42,8.06,8.06,0,0,0-.33,1.19,1.47,1.47,0,0,0,.9,1.77,2.54,2.54,0,0,1,.12-.51,8,8,0,0,1,1.07-2.34,2.5,2.5,0,0,0,.61-2M53,40.6l-.21,0c-.09.32-.19.63-.29,1-.11-.17-.19-.31-.34-.56,0,.25-.07.37-.08.5-.06.46,0,1-.18,1.38-.39.61-.14,1.16-.16,1.66l2.34.38c.05-.2.11-.44.16-.69l-.09,0-.28.32c-.09-.78-.17-1.52-.26-2.35l-.61.46ZM36.5,30.31a3.84,3.84,0,0,1,0,3.25c1.1.37,1.77,1.48,3.1,1.9-.29-1.46-.54-2.74-.81-4a.55.55,0,0,0-.27-.37c-.62-.26-1.25-.49-2-.77M20.19,56.16l.18.1c-.7.4-.54.75,0,1.07l-1,.74a3.44,3.44,0,0,0,.64.13c.37.14.44-.1.55-.35.27-.61.53-1.23.81-1.83s.46-.93.7-1.41a1.74,1.74,0,0,0-.3-.13c-1.21-.17-2.43-.32-3.63-.52-.65-.1-1.28-.28-1.92-.43-.42-.09-.66.14-.86.47s-.07.51.2.7c.08.06.08.25.12.41.72-.2,1.46-.42,2.21-.59.23-.06.68-.07.72,0,.15.4.47.33.75.43s.31.33.4.53c0,0-.22.21-.36.31a4.77,4.77,0,0,1-.44.25l1.24.1m78.07,9.25c.22.43.36.72.53,1s.21.35.34.38c.73.13,1.46.19,2.19.32a1.36,1.36,0,0,0,1.5-.65c1.27.37,2.3-.63,3.52-.48a1.36,1.36,0,0,0,0-.2l-1.53-.8.81-.86c-2.19,1.75-4.67,1.81-7.38,1.29M77.06,45.12A.76.76,0,0,1,77,45c.13-.28.39-.56.37-.82a.89.89,0,0,1,.57-.88c.64-.32.82-1,1.33-1.42,0,0,0-.15.07-.22s.22-.43.32-.65a1.3,1.3,0,0,0,.08-.34l-.17-.13a28.79,28.79,0,0,1-5.86,6,.3.3,0,0,0,.26.05,4.66,4.66,0,0,1,3-.09.76.76,0,0,0,.56-.09,6.54,6.54,0,0,0,1-.59c.5-.35,1-.75,1.44-1.13l-.09-.12L79,45.1l-.12-.18a2.3,2.3,0,0,0,.33-.37,2.72,2.72,0,0,0,.19-.5c-.2,0-.44-.09-.59,0-.4.23-.76.55-1.14.81a2.94,2.94,0,0,1-.57.26m-45.21,19c-.41-1-1-1.12-1.94-.9a36.25,36.25,0,0,1-4.06.43,3.31,3.31,0,0,0-.79.31l.62.29-.52.36a3.75,3.75,0,0,0,0,.64c0,.33.07.65.11,1l.68-.21.17,0a14.36,14.36,0,0,0,3.49-1.12,5.18,5.18,0,0,0,1.07-.61c.12-.11.36-.1.56-.12s.41,0,.64,0M46.62,46.46c.06.18.06.24.09.25,1.42.78,2.82,1.61,4.27,2.31A1.27,1.27,0,0,0,52.59,49a2,2,0,0,0,.26-2.26c-.37-.69-1.07-1-1.62-.53-.18-1-.34-2-1.56-2.06-.5.83.09,1.6.28,2.42a1.4,1.4,0,0,1-.26-.39c-.36-.68-.45-.62-1.17-.28s-1,1-1.9.61M34.39,44.24l-2.91-2.59.46.87-2.07-.69.74.68h-.84l-.44.92-.6,0,0,.09,1.35.67c-.36.22-.64.51-.95.54a1.24,1.24,0,0,0-1,.87c.31.27.81.47.41,1.12l2.9.64c0-2.06,1.56-2.47,3-3.08m-8.75,6,.06-.13c-1.17-.57-2.38-1.08-3.49-1.74a1.54,1.54,0,0,0-1.84.09c-.18.12-.41.34-.4.51s.26.41.45.46c.56.17,1.14.26,1.71.38h.06l1,.3c0,.1,0,.2,0,.3a3.15,3.15,0,0,1-.73.11c-1-.1-2-.25-3-.32a3.33,3.33,0,0,0-1,.22c0,.09,0,.17,0,.26l1.45.55-1,.49,1.56.85-.76.25c1,.31,1.8.57,2.62.78a.81.81,0,0,0,.64-.14c.81-.7,1.59-1.45,2.4-2.21-.4-.58-1.26-.24-1.92-.65.26-.18.44-.42.63-.43.51,0,1,.05,1.52.08M31.69,74c.17.65-.67,1.37.32,1.83-.51.9.38,1.36.59,2.07.14-.25.21-.57.39-.65a1.08,1.08,0,0,0,.57-1.15c-.05-1.52-.16-3-.16-4.56,0-1.29-.22-2.61.43-3.84a1.42,1.42,0,0,0,.07-.42l-.15-.11c-.26.24-.75.5-.73.71.07.58-.33.69-.65.92s-.33.29-.49.43l.58.16s0,.06.06.1,0,.08-.05.1l-.29.2a33.47,33.47,0,0,1-6.84,2.67,1.51,1.51,0,0,0-.62.31c-.09.09,0,.32,0,.49.14,0,.28,0,.42-.06l1-.26.6-.15c.67-.14,1.34-.3,2-.41.09,0,.26.23.31.38s.17.58.26.9l.19-.15c.19-.14.38-.43.55-.41a.46.46,0,0,1,.42.64c0,.08.07.21.13.31.37.62.73.14,1.12,0M24.56,84.87a1.36,1.36,0,0,0,.81-1.21c.06-1.48.23-3,.33-4.45,0-.41,0-.83,0-1.25l-.17,0c-.12.23-.19.55-.38.67-1.37.85-2.75,1.66-4.14,2.47-1.09.63-2.19,1.23-3.27,1.84a4.88,4.88,0,0,1,.58.74c.29.54.33.56.72.07a.82.82,0,0,1,1.48.16c.23.51.38,1.06.57,1.58a2.87,2.87,0,0,1,3.46-.6M72.49,45.7c-.68-.09-1.31-.16-1.94-.28a.8.8,0,0,1-.45-.32c-.25-.32-.43-.69-.68-1s-.53-.59-.81-.9c0,.25.1.52.13.78A19.68,19.68,0,0,1,69,46.26a1.54,1.54,0,0,1-1.6,1.61,3.47,3.47,0,0,0-.81.26,1.93,1.93,0,0,1,0,.24c.81.55,1.59,1.17,2.45,1.65a8.31,8.31,0,0,0,4.68.83,2.19,2.19,0,0,0,.67-.25L74,49.76c.42-1.21.33-1.37-1-1.66a1.18,1.18,0,0,1-.43-.28.5.5,0,0,1,.09-.25,3.17,3.17,0,0,1,.43.13l-.21-1.08-.8.25-.13-.17.55-1m8.19,6.49a.94.94,0,0,1,0-.16,5,5,0,0,0,.66-.31c.2-.14.55-.4.52-.49-.21-.57-.36-1.33-.8-1.62a3.58,3.58,0,0,1-1-1c.24-.67.48-1.34.74-2l-.49-.12v-.36L77.83,47a2.38,2.38,0,0,1,.22,2.45,4.63,4.63,0,0,0-.24,1.22,3.13,3.13,0,0,1-2,2.78c-.31.16-.6.33-1,.57,1.66.45,2.9,1.15,3.15,2.88a2.26,2.26,0,0,0,2.63-1.09c-.43-.35-.17-.66.14-.93l-.35-.26c.73-.22.92-.57.75-1.25l1-.64-1.37-.58M60.51,44.27a2.34,2.34,0,0,0-.23.37,8.4,8.4,0,0,0-.35,3.76,7.32,7.32,0,0,1,.19,1.23,1.51,1.51,0,0,1-.15.47,3.81,3.81,0,0,1-.45-.23c-.15-.1-.26-.32-.4-.33a7.76,7.76,0,0,0-1.18,0,.67.67,0,0,0-.41.17c-.55.88-.31,1.52.66,1.92.63.27,1.23.63,1.87.91a1.06,1.06,0,0,0,.71.1,16.37,16.37,0,0,1,4.54-.87c.22,0,.59-.14.62-.27.17-.79.91-1.44.6-2.32a4.35,4.35,0,0,0-.56-.88l-.62.47h0l-1.84-.7,0,0c-.31.24-.82.26-.88.8,0,.1-.17.19-.26.29a.31.31,0,0,1,0-.29,1.65,1.65,0,0,0-.27-2A13.69,13.69,0,0,1,60.76,45a3.9,3.9,0,0,1-.25-.74m-17.3,4.21c-.31.24-.61-.22-.92-.56A19.29,19.29,0,0,1,40.59,46a3.6,3.6,0,0,0-2.81-1.34c.78.76.76,1.33,0,2.55a3.41,3.41,0,0,0-.92.23.68.68,0,0,0-.13.62A1.62,1.62,0,0,1,36,50a1.42,1.42,0,0,0,.13.12c.21.11.42.22.64.31a21.4,21.4,0,0,0,6.59,1.5,5.38,5.38,0,0,0,1.59-.2c.58-.15.71-.44.51-1a1.68,1.68,0,0,0-.38-.71c-.59-.53-1.23-1-1.9-1.54M38,94.5h.2l.31-.94.21.14,1-.78c.08.43.13.72.18,1l.15.12c.62-1.06,2.09-1.17,2.37-2.46a12.18,12.18,0,0,0,1,1.19c.37.35.78.11,1-.18.09-.1,0-.51-.17-.7a21.09,21.09,0,0,1-2.54-4.84l-.9-2.51c-.35.6-.62,1.12-1,1.61A13.17,13.17,0,0,1,35,90.62c-.42.22-.51.51-.29,1,.18-.27.35-.53.51-.79l.1,0v.74l1-.82v2.44l.58.7.37-1,.63.58c0,.28.09.61.15,1m48.76-6.19a7.5,7.5,0,0,0,.84.16,5.61,5.61,0,0,0,.58,0,5.54,5.54,0,0,1,.81,0,4.33,4.33,0,0,0,1.43.2c.78-.19,1.37-.93,2.3-.73-.1-.37-.24-.77-.22-.79.78-.32.3-1.06.52-1.56a1.28,1.28,0,0,0,.11-.61c0-.34.07-.43.4-.36a1.61,1.61,0,0,0,.52-.08,2,2,0,0,0-.14-.55,6.71,6.71,0,0,0-.49-.71l.83,0h.64L95,83c-4,.33-7.25-1.28-10-4-.07.12-.12.16-.11.19s.1.34.13.51a25.94,25.94,0,0,1,.61,4.16,6.7,6.7,0,0,0,.94,3.84c.13.2.23.42.32.58M57.7,55.1h0c-.05-.06-.1-.14-.16-.16-1.08-.29-1.08-.31-1-1.4s.2-2-.57-2.68c-.36,0-.64,0-.81-.12a2.08,2.08,0,0,0-2.06,0V49.55l-.16-.06L52,50.76a4.23,4.23,0,0,1-.51.72c-.47.43-1,.79-1.47,1.23a3,3,0,0,0-.44.85L46,51.16a3.64,3.64,0,0,1-.27.49c-.13.17-.45.34-.43.46.18.93-.54,1-1.09,1.29-.89.45-1.69,1.13-2.79.9,0,0-.06.05-.11.08-.06.29.2.91-.51.63-1.51-.58-3-1.22-4.52-1.82a9.87,9.87,0,0,0-1.55-.55c-1-.18-1.95-.37-2.94-.49a12.49,12.49,0,0,1-3.16-1,1.72,1.72,0,0,0-1.95.22l.34.22c.69.45.72.58.42,1.34a8.5,8.5,0,0,0-.21.84l.64-.35c0,.39.08.73.12,1.06l.82-.06,0,.23a2.57,2.57,0,0,1-.61.09c-.37-.05-.48.1-.39.44a3.13,3.13,0,0,0,.23.54,3.8,3.8,0,0,1,.41.9c.08.53.36.77.87.7a2,2,0,0,1,.91,0c.84.24,1,.16,1.2-.68.06-.23.11-.46.16-.7a3.85,3.85,0,0,1,3.28-2.65.72.72,0,0,0-.15.19c-.1.4-.38.91-.23,1.2s.78.61.48,1.23c0,0,.1.17.16.25a3.25,3.25,0,0,1,.75,2.16,1.07,1.07,0,0,1-.15.56c-.3.45-.65.87-1,1.31l3,.35s0,0,.06,0l3.4-.33c0,.14.08.3.15.53a6.11,6.11,0,0,0,1.37-.44c1-.62,2-1.32,3-2a6.6,6.6,0,0,1,.64-.36c.07.06.13.13.19.19-.43.82-.87,1.64-1.31,2.46-.32.57-.6,1.18-1.28,1.42-.08,0-.14.14-.2.22a3.06,3.06,0,0,1-2.23,1.19c-2.59.29-5.2.46-7.8.6a2.37,2.37,0,0,0-1.7.69,2.72,2.72,0,0,1-.88.57c-.59.24-1.2.4-1.81.6l0,.25.82.3-.22.3.09.2,1.23-.37a3.48,3.48,0,0,0,.67-.24.63.63,0,0,1,1,.2l-.8.52a6,6,0,0,0,1.64-.6,2.23,2.23,0,0,0,.72-.61c.27-.36.46-.78.72-1.15a.53.53,0,0,1,.42-.15c.08,0,.16.26.15.39a3,3,0,0,0,1,2.3,5.41,5.41,0,0,1,.7,1c.6,1.17.6,1.18,1.65.34.07-.06.19-.11.22-.19.27-.75,1-.72,1.55-1l.16.13c-.61.79-1.23,1.59-1.86,2.42.57.21,1.22-.08,1.58.51a.49.49,0,0,0,.31-.1c.47-.66,1.19-.3,1.87-.52a2.39,2.39,0,0,1-.2.4c-.35.39-.17.67.21.85s.68.35,1,0a.7.7,0,0,1,.49-.2c.83.17,1-.34,1-1a3,3,0,0,0,2.18-1.18c0-.16,0-.31-.06-.39a10.21,10.21,0,0,1,1.19-.43,2.56,2.56,0,0,1,.73,0,1.56,1.56,0,0,1-.61,1.24l.09.11.78-.13c.05.47.1.88.15,1.29l.19,0q.24-.46.48-1c.11.07.17.09.18.12a1.28,1.28,0,0,1,.07.28,8.12,8.12,0,0,1-1.09,5,5.25,5.25,0,0,1-3.61,2.6c-1.12.16-2.25.2-3.38.31-.16,0-.43.05-.46.14a.63.63,0,0,0,.08.55c.5.57,1,1.11,1.55,1.67.31.33.6.67.88,1a3.7,3.7,0,0,1,.31.55,2.46,2.46,0,0,0,.5-.52,2,2,0,0,1,1.85-1,5,5,0,0,0,1.08-.1c.35,0,.71-.06,1.06-.12.2,0,.46,0,.57-.18.36-.41.67-.83,1.35-.67.16-.83.32-1.6.43-2.38s.21-1.62.29-2.43.12-1.52.18-2.29a7.28,7.28,0,0,1,.61,2,57.68,57.68,0,0,1,.29,6.29,27.67,27.67,0,0,1-.78,4.08,2.39,2.39,0,0,0,0,1,2.84,2.84,0,0,0,.42.69c.06-.17.13-.37.19-.57a1.84,1.84,0,0,1,.56.14C54.22,86,55,86,55,86.85c0,.33.31.36.58.17s.42-.43.56-.39c.56.16.84-.21,1.19-.49.09-.07.24-.18.31-.15.48.22.73,0,.88-.43,0-.09.18-.16.29-.19a1.07,1.07,0,0,0,.75-.88c.21-.79.84-.91,1.38-.3a4.33,4.33,0,0,1,.49.85l1-.1-.05-.34c.23-.2.49-.32.53-.49a6.71,6.71,0,0,0,.09-1.1c0-.34.08-.68.13-1h.19c0,.06.11.12.12.19.06.47.08,1,.18,1.41,0,.18.23.46.35.46a.88.88,0,0,0,.54-.34,2.54,2.54,0,0,0,.24-.64c.46.3.69,0,.7-.35,0-.2-.26-.5-.47-.6-1-.47-2.12-.86-3.15-1.35-1.36-.64-2.72-1.29-4-2a9.26,9.26,0,0,1-4.35-6.2,3.7,3.7,0,0,1-.08-.94,1.65,1.65,0,0,1,.17-.46,17.61,17.61,0,0,0,1.42,1.27,1.39,1.39,0,0,0,.78.12c.24,0,.55-.18.71-.08.64.39,1.23.86,1.83,1.3.18.13.35.28.52.42l.16-.1c-.15-.58-.31-1.16-.45-1.75a15.59,15.59,0,0,1-.36-1.78c0-.2.2-.43.31-.64a2.57,2.57,0,0,1,.55.54,14.11,14.11,0,0,1,.59,1.31h.2l.47-.75h0c.56-.13.67-.35.58-1.06a1,1,0,0,1,0-.61,3,3,0,0,1,.54-.62s.18.08.24.17c.28.41.56.83.83,1.26a.79.79,0,0,1,.15.37,1.44,1.44,0,0,0,.64,1.15,9.72,9.72,0,0,1,.66.76c.43.49.87,1,1.37,1.52,0-.21.12-.36.09-.46-.26-.64,0-1,.61-1.17a.9.9,0,0,0,.48-.48,2.2,2.2,0,0,0-.18-2,.62.62,0,0,1,.24-1c.3.53.6,1,.85,1.51.34.69.71.76,1.27.22s.48-1.1,1.12-1.31c.06,0,.08-.21.09-.32,0-.51.27-.68.72-.47a8,8,0,0,1,.93.63,5.1,5.1,0,0,1,2.4,5,14.2,14.2,0,0,1-1.42,5.56c-.23.46-.16.76.36.9a16.33,16.33,0,0,1,1.73.48c.73.28,1.09.2,1.8-.42.52-.46.1-.81-.06-1.21,0,0,0-.07,0-.11s0-.25,0-.37.31,0,.38.07a10.29,10.29,0,0,1,.89,1.17c.33.51.61,1.06.91,1.6l.16,0a13.79,13.79,0,0,0,.55-1.87c.08-.52.27-.85.84-1V77.74L80.7,79l.14-.06c-.17-.54-.42-1.08,0-1.63,0-.06-.15-.27-.15-.42A2,2,0,0,1,80.8,76c.07-.12.39-.11.71-.18.07-.34.16-.78.26-1.23l-.26.18,1.23.92c0-.2.07-.3.09-.4l.15-.07L84.58,78a.46.46,0,0,1,.13,0c1.24-.22,2.5-.33,3.73-.64.13,0,.3.07.46.1a.83.83,0,0,0,.34,0,2.94,2.94,0,0,1,2.1.19,3.4,3.4,0,0,0,1,.12c0-.08,0-.17,0-.26a5.82,5.82,0,0,1-.74-.24c-.2-.09-.54-.29-.52-.39.09-.42-.22-.49-.46-.65a2.54,2.54,0,0,1-.54-.36,2.43,2.43,0,0,1-.33-.57,2.37,2.37,0,0,1,1.59-.43l0-.21a15.53,15.53,0,0,0-2.05-.8c-2.91-.71-5.86-1.25-8.75-2.06a36.19,36.19,0,0,1-7-2.55c-1.08-.57-2.24-1-3.34-1.55a12.94,12.94,0,0,1-1.39-.93l.09-.2a4.74,4.74,0,0,1,.84.13c.58.2,1.13.48,1.72.66a7.31,7.31,0,0,0,2.06.47,27.22,27.22,0,0,0,3.24-.43c0-.16-.06-.38-.17-.46-.54-.39-.39-.57.14-.78.87-.35,1-1.06.35-1.74l-1.23-1.3c.7.16,1.24.22,1.61-.49.28-.54.92-.93.3-1.73.44-.23.82-.45,1.22-.63s.68-.28.82-.75.48-.63,1-.42a7.66,7.66,0,0,1,5,5.08,1.72,1.72,0,0,0,1.4,1.46,6,6,0,0,1,1.08.44A11.46,11.46,0,0,1,88,64.26c0-.74.11-1.5-.41-2.16l.12-.14,1.31.72.28-.35c-.75-.71-1.14-1.74-2.25-1.92a.36.36,0,0,1-.15-.28c0-.11.19-.18.29-.25l.66-.41c.33-.2.69-.59,1-.55a16.94,16.94,0,0,1,2.7.68c.68.21,1.34.51,2,.76V58.61L93,58.35l1.09-.84c.66,1.07.79-.22,1.21-.27-.28-.12-.59-.13-.84-.26a2.53,2.53,0,0,0-2.12,0,19.83,19.83,0,0,1-2.44.47c-.09,0-.19-.05-.29-.05a6.54,6.54,0,0,0-1.25,0c-1.39.21-2.78.46-4.17.7a.37.37,0,0,1-.15-.08l.56-.33a2.36,2.36,0,0,0-.48,0,10.75,10.75,0,0,1-1.67.34c-1.45,0-2.89,0-4.34,0a.62.62,0,0,0-.7.38c-.3.71-.64,1.41-.92,2.13a1.31,1.31,0,0,1-1.45,1.05c-.52,0-1,.09-1.54.1-1.77,0-3.59.55-5.37-.58.11.6.21,1.11.29,1.62A2,2,0,0,1,67.33,65a3.82,3.82,0,0,1-1,.33,3,3,0,0,0-1.91,1.21,2.66,2.66,0,0,1-2.12,1.13,12.32,12.32,0,0,1-5.53-.37,5,5,0,0,1-2.59-1.49,2.53,2.53,0,0,0-1.09-.64c-1.07-.39-2.17-.73-3.24-1.11a3,3,0,0,1-.63-.46l.06-.16a5.12,5.12,0,0,1,1,0c1.11.2,2.21.49,3.33.67,2.49.39,5,.69,7.49,1.14A1.54,1.54,0,0,0,62.39,65l-.19-.74a2.08,2.08,0,0,0,.7,0,1.53,1.53,0,0,0,.65-.45A4.24,4.24,0,0,0,64,63.1c.34-.59.69-1.16,1-1.75a.68.68,0,0,0,.06-.35c0-.59-.09-1.18-.14-1.82l.65-.28c-1.3-.73-2.67-1.17-3.56-2.61a12.52,12.52,0,0,1,2.11.11c1.2.26,2.38.63,3.57.94l5.25,1.33a2.15,2.15,0,0,0,.36,0,3.5,3.5,0,0,1,.06-.48,2.19,2.19,0,0,0-.49-2.13.84.84,0,0,1-.21-.35c-.18-.69-.66-.81-1.28-.79a3.17,3.17,0,0,1-.77-.18,2.56,2.56,0,0,0-.77-.22c-.34,0-.63,0-.8-.32-.36-.78-.72-1.56-1.1-2.33a5.34,5.34,0,0,0-.3-.54c-.48.41-.82.88-1.27,1a5.31,5.31,0,0,0-2.23,2,2.21,2.21,0,0,1-1.83.93,14.29,14.29,0,0,0-4.61-.24M48.39,29l-1.17-.9-.19.71-.16.1c.13-1.45-1.18-1.76-1.81-2.73l-.57,1.56c.54-.7.95-.3,1.34.12s.6.68.88,1A1.19,1.19,0,0,1,47,30.27l-.67-1.34-.14.07c0,.3,0,.6,0,.9l-.14.06c-.18-.19-.37-.39-.6-.65v1.83L45,29.94a3.52,3.52,0,0,0-.37.4,4.51,4.51,0,0,0-.71,1.28c-.06.25.3.6.48.89a6.06,6.06,0,0,1,1,3.75,8.48,8.48,0,0,0-.26-1.12.88.88,0,0,0-.89-.69,3.27,3.27,0,0,1-2.39-.87c.7,2.11,2.64,2.89,4,4.19H44.76l-.33-.23a1.92,1.92,0,0,1,0,.27l-.87.39c-.71-.71-1.64.15-2.36-.38,2,1.36,2.61,1.89,3.09,2.81l-1.47.07.34.79c-.48-.12-.88-1-1.39,0,.52.27,1,.55,1.53.8a3.64,3.64,0,0,0,1,.31c.68.09,1.37.14,2.06.2.18,0,.37,0,.59,0a5.37,5.37,0,0,0-.2-3L46,41.5c-.34-.93.33-1.6.22-2.38l-.45.14c.54-1.36,1.05-2.63,1.54-3.91a7.28,7.28,0,0,1,.36-1.3,20.82,20.82,0,0,1,1.51-2,2,2,0,0,1,.38-.23c0,1.21-.73,2-1.19,3l.84-.5c.1.52.17.94.26,1.4l2.07-1.76a3.06,3.06,0,0,1-.92,2.5,2,2,0,0,0-.6,1.91c.82-.83,1.13-2,2.31-2.49v1.78l1.54-1a3.49,3.49,0,0,1-.82,2l-.61-.88c-.51,1.42-.65,2.43.13,2.79a15.53,15.53,0,0,1,2.3-4.11c.84.52.56-.36.87-.72l.79,1.69h.15a3.8,3.8,0,0,0,0-1.12,3.19,3.19,0,0,0-.58-.84l.69-.59a.2.2,0,0,1,.16-.06,6.54,6.54,0,0,1,2.27,1l0,.15-.71-.07,0,.18,1.24.22,1.68,1.64-.36,0c-.06.35-.11.66-.18,1.12L59.3,37.08l-.2.15c.11.15.21.3.32.44a9.79,9.79,0,0,1,2.06,3.85c.17.75.07.95-.6,1.33-.07,0-.08.21-.1.25H62.6c.45,0,.58-.2.53-.64a11.31,11.31,0,0,1,0-1.54c0-1,.15-2,.19-3a.74.74,0,0,0-.25-.53,2.41,2.41,0,0,0-.77-.15l-.51-1.64a2.44,2.44,0,0,1-.81.35,1,1,0,0,1-.63-.37c-.46-.66-.89-1.34-1.31-2a3.08,3.08,0,0,1-.2-.56,1.86,1.86,0,0,1,.54.07q1.08.57,2.13,1.17l2.37,1.41a.5.5,0,0,0,.3.11c1.3-.12,1.42-.06,1.9,1.05.08.18.19.35.28.53.41.85.83,1.7,1.22,2.57a4.17,4.17,0,0,1,.19.88l-.14,0-.42-.9a1.76,1.76,0,0,0-.62,1.69c0,.4.07.8-.42.94-.45-.18-.08-1.28-1-.86-.06-.24-.11-.47-.16-.69l-.2,0V42.3L64,42c-.2.3-.35.53-.54.84h.79a6.94,6.94,0,0,1,1.36-.05,1.57,1.57,0,0,0,1.66-.53,1.93,1.93,0,0,1,.8-.49,4.86,4.86,0,0,1,.86-.18l-.18.82a.14.14,0,0,0,0,.06c1.35.06,5-.91,5.26-1.51l-.62.31c-.49-1.31-1.39-.64-2.18-.48l2-1.69-.14-.17a9.72,9.72,0,0,0-1.25.94c-.48.48-.83.48-1.14-.14-.44.55-.44.55-1.41-.19l.48-.22L69.63,39l-1.32.12A3.25,3.25,0,0,1,70,38.28c.86-.3,1.72-.62,2.58-.91s1.31-1.23,1.85-1.94c.11-.15.23-.43.16-.52s-.33-.61-.74-.39-.63.39-1,.62l-.39-.28-.77.63c-.2-.34-.51-.72-.85-.37-.69.68-1.58.57-2.39.82-.64-1,.23-1.68.51-2.5l-.4.13a.35.35,0,0,1,0-.08l2.75-2.36-.1-.22a6.29,6.29,0,0,0-1.23.18c-.51.16-.6,0-.64-.49a6.77,6.77,0,0,0-.41-1.71,11.81,11.81,0,0,0-.79-1.47A12.57,12.57,0,0,1,67.26,29a1.25,1.25,0,0,0-.16,1.17,22,22,0,0,1,.63,5.6.73.73,0,0,1-.11.27l-.77-.61a1,1,0,0,0-.11-.64A14.19,14.19,0,0,1,66,33a16.35,16.35,0,0,1-.31-2.1l-.6-.49c-.21.54-.42,1.07-.66,1.7-.13-.4-.2-.62-.23-.73l-1.06,1.12c0-.4,0-.64-.07-1.08l-.64,1c-.06-.16-.08-.4-.21-.51-.46-.37-1-.59-1.3-1.21a5.53,5.53,0,0,0-1-1.27,3,3,0,0,0-.54-.36c-.23-.22-.36-.58-.6-.85-.44-.5-1-.94-1.42-1.42-.3-.31-.48-.28-.61.15-.09.26-.16.54-.23.81l-.21,0-.54-1.28-.16,0c-.11.41-.2.82-.33,1.22-.05.15-.17.37-.27.37a1.17,1.17,0,0,1-.55-.19c-.08,0-.11-.15-.15-.2l-1.4,1-.48-.57-.51.47a9.23,9.23,0,0,0-.06-1c0-.13-.16-.33-.25-.33a.48.48,0,0,0-.36.24.84.84,0,0,0,0,.49c.15.5.33,1,.49,1.45l-.66.3c0-.1,0-.2,0-.3,0-.56-.41-.68-.79-.66-.16,0-.37.38-.43.62a3.34,3.34,0,0,0,0,.89l-.53-1.37-.22,0-1.13,2-.18-.07c.18-.64.35-1.28.53-1.92.44-.56.9-1.12,1.33-1.7a.39.39,0,0,0-.06-.32,4.67,4.67,0,0,0-.81-1,1.09,1.09,0,0,0-.87-.1c-.13,0-.25.47-.2.69.17.82.41,1.63.63,2.45m70.45,11.78V46.1a12.7,12.7,0,0,0-1.63-.18,1.41,1.41,0,0,0-.9.29c-.48.44-.86,1-1.29,1.46-1.17,1.27-2.32,2.54-3.52,3.79-1,1.09-1.07,1.07-.18,2.3a1.19,1.19,0,0,0,.08.16c.44.62.86,1.25,1.33,1.85a3.84,3.84,0,0,0,.76.59,1.36,1.36,0,0,1-.24.3c-.56.41-.63.84-.13,1.67.61,1,1.25,2,1.77,3.05a21,21,0,0,1,.79,2.27c.37,1,.41,2.08,1.12,2.94a.62.62,0,0,1-.08.58c-.44.59-.9,1.15-1.39,1.69a.92.92,0,0,0-.1,1.4.59.59,0,0,1,0,.58c-.41.38-.88.71-1.33,1.06a4.34,4.34,0,0,1-.91.65c-.93.4-1.89.73-2.84,1.08a16.58,16.58,0,0,1-6.35,1.11c-.87,0-1,.15-.52.89s1.07,1.56,1.64,2.3c.41.54.35.72-.28.93a3.45,3.45,0,0,0-1.05.64,5.54,5.54,0,0,1-2,1.44A22.61,22.61,0,0,0,98.87,82c-.24.1-.59.32-.6.49,0,1.06-.07,2.14,1.06,2.78a1.22,1.22,0,0,1,.43.54c.2.43.32.9.55,1.31,1.35,2.41,2.22,5.08,3.93,7.3a1.67,1.67,0,0,1,.17.44,6.8,6.8,0,0,0-1.48.25,12,12,0,0,1-4.76,1c-.7,0-1.39,0-2.09,0-.32,0-.52.09-.54.46-.06,1-.11,2.06-.23,3.07a29.78,29.78,0,0,1-.53,3c-.43,1.82-.92,3.62-1.37,5.44-.13.53-.34.67-.9.54a3.83,3.83,0,0,0-.83-.07c-1.09,0-2.19.05-3.28,0a4.53,4.53,0,0,1-1.67-.49,1.58,1.58,0,0,0-2.21.56c-.07.12-.15.24-.23.35s-.34.27-.59.07q-1.89-1.52-3.81-3c-1-.78-2.07-1.55-3.12-2.32a4.61,4.61,0,0,1-2.11-2.54c0-.13-.19-.24-.3-.35l-.41-.38.1-.14c1.18.57,2.55.78,3.31,2.09.11-1.18-1.43-1.62-1.15-2.74h1a1.81,1.81,0,0,1,.52.07c.63.24,1,0,.93-.68a2.42,2.42,0,0,1,.13-.58,3.08,3.08,0,0,1,.58.35c.11.11.11.37.23.46a1.38,1.38,0,0,0,.77.33c.29,0,.55-.26,1-.47A10.14,10.14,0,0,1,74,91.59l.68,1.06.13-.05c0-.16,0-.32.08-.55l1.69,1.09V92c.54.46.89.39,1.27.09a.64.64,0,0,1,.57,0c.15.08.23.32.3.51a1.07,1.07,0,0,1,0,.38,2.27,2.27,0,0,1,2,.67,5.16,5.16,0,0,0,1.29.94,2,2,0,0,0,.58.1c-.34-.72-.42-.74-1-.9a1.6,1.6,0,0,1-.73-.43c-.59-.64-1.11-1.34-1.69-2-1.29-1.46-2.63-2.87-3.87-4.37-1-1.15-1.82-2.39-2.69-3.61a18.3,18.3,0,0,1-.94-1.61l0,0,1.43,1.37.16-.13c0-.09,0-.2,0-.27a11.68,11.68,0,0,0-1-1.35.5.5,0,0,0-.86,0A11.07,11.07,0,0,1,69.69,83a2.28,2.28,0,0,0-.85,2.13,8.81,8.81,0,0,1-2.14,6.27c-.55.6-1.18,1.13-1.68,1.76a31.66,31.66,0,0,0-1.83,2.63.73.73,0,0,0,0,.69,4.88,4.88,0,0,0,1,.66c.42-.24.82-.67,1.48-.46a2.28,2.28,0,0,0,.87-.09c.18.17.43.4.67.64l.06-.23A3.29,3.29,0,0,0,68,97c.24,0,.61-.18.65-.33a1.64,1.64,0,0,1,.57-1,.89.89,0,0,0,.21-.48c.23-.91.45-1.83.67-2.75.1-.38.21-.74.79-.51.4-1.16.78-2.26,1.2-3.46,0,.36,0,.62,0,.87A44.34,44.34,0,0,1,70,99.18c-.33,1-.56,2.09-.85,3.13s-.54,1.81-.85,2.71a5.2,5.2,0,0,0-.31,2.86,4.58,4.58,0,0,1-1.09,4.22c-.6.68-1.31,1.27-2,1.92a7.79,7.79,0,0,0-.95,1.13c-.42.64-.69.69-1.15,0a1.91,1.91,0,0,0-1-.76,7.44,7.44,0,0,1-2.11-1A41.34,41.34,0,0,1,56,110a2.7,2.7,0,0,1-.72-2.79c.14-.43.33-.85.51-1.3a2.57,2.57,0,0,1,.26.12c.81.56.91.54,1.45-.3.2-.3.38-.26.53,0s.3.61.44.92l.19-.07c-.42-1.48-.33-3.09-1.25-4.44A8.41,8.41,0,0,1,56,98.68a1.41,1.41,0,0,0-.4-.76c-.32-.28-.6-.14-.63.29-.09,1.38-.18,2.77-.25,4.16a5.3,5.3,0,0,0,.11.79l.63-.36a49.65,49.65,0,0,1-2.85,9.93,2,2,0,0,1-.35-.59c-.12-.25-.22-.67-.4-.71A6,6,0,0,1,49.72,110c-1-.8-1.54-2-2.43-2.82,0,0,0-.11-.08-.16A12.85,12.85,0,0,1,46,104.66c-.39-.92-.45-1.23.2-2l1,.84c0-.36.07-.58.1-.81l.16-.06.78,1.84a1,1,0,0,0,.12-.64c-.06-.3-.17-.68.26-.68s.86-.38,1.19.22a9.31,9.31,0,0,0,1,1.28l.36-.6c.06.25.1.41.16.68l.32-.54.62.39c.06-.52.11-1,.15-1.48h.18c.06.38.13.77.21,1.27.1-.17.16-.23.17-.3.37-2.29.74-4.58,1.08-6.88a.89.89,0,0,0-.25-.67c-.7-.64-1.44-1.24-2.16-1.87-.38-.34-.61-.27-.87.18-.95,1.6-1.91,3.2-2.93,4.76a28.88,28.88,0,0,1-2.19,3A9.65,9.65,0,0,1,44,103.91a11.4,11.4,0,0,1-3.78,1.9c-1,.29-2,.7-3,1a.65.65,0,0,1-.56-.14c-.27-.33-.42-.76-.7-1.07a17.64,17.64,0,0,1-2.4-3.58,10.77,10.77,0,0,1-1.4-4.47,42.44,42.44,0,0,1,.17-5.16c0-.65-.05-.78-.67-.6-1.57.47-3.23.65-4.65,1.59-.3.2-.79.11-1.19.15,0-.37-.09-.74-.11-1.11s0-.77,0-1l-1.89,1.4c.8.37.54.78.48,1.18s.05.63,0,1a3.66,3.66,0,0,1-.09,1.33c-.35.91-1.25,1.43-1.65,2.39a9.18,9.18,0,0,1-2,2.45c-1.28,1.32-2.61,2.59-3.93,3.87a4.51,4.51,0,0,1-.45.35,3.45,3.45,0,0,1,.88-2.84,4.33,4.33,0,0,0,1.3-2.9c0-.27.25-.52.36-.79.26-.69.5-1.38.76-2.07l-.21-.15L14.4,100.3c-.28-.69-.55-1.4-.85-2.11a6.26,6.26,0,0,0-.84-1.81,5.91,5.91,0,0,1-1.25-3.49,38.32,38.32,0,0,1-.05-4.29c0-.58-.23-.8-.81-.83a2.13,2.13,0,0,1-1.06-.4,6.8,6.8,0,0,1-1-1,.74.74,0,0,1-.21-.4C8.18,84.7,8,83.4,8,82.1A11.73,11.73,0,0,1,9.32,77c.83-1.68,1.78-3.32,2.78-4.92a17.83,17.83,0,0,1,1.76-2,9.09,9.09,0,0,1,1.23-.91c.94-.5.64-1.39.85-2.21l-7.21,2.2c.44.08.86.13,1.26.23.23.06.44.27.67.3.69.07,1.38.06,2.07.13a11.1,11.1,0,0,1,1.14.27,6.6,6.6,0,0,1-1.18.47c-1.35.24-2.7.42-4,.63L8,71.25c-.91.19-1.8.44-2.71.56-1.21.16-2.44.21-3.66.33-.65.06-1.3.19-2,.29a2.31,2.31,0,0,1,0-.6,8.9,8.9,0,0,1,3-3.94A5,5,0,0,0,3.4,67a4.74,4.74,0,0,1,.48-.59,1.1,1.1,0,0,0,.49-1.18c-.11-.5-.52-.62-.92-.82a7.37,7.37,0,0,1-1.81-1.19C1.08,62.73.7,62,.18,61.47S-.5,60.81,0,60a3.39,3.39,0,0,0,.27-.39c.26-.59.54-1.18.77-1.78S1,57,.39,57s-.94-.45-.65-1.12a2.62,2.62,0,0,0,.08-.75c.61-1.37,2.14-2,2.94-3.29a2.82,2.82,0,0,0,.58-1.47A1.82,1.82,0,0,0,3.06,49s0-.11-.05-.17c-.13-.34-.45-.73-.37-1s.56-.48.84-.74A24.39,24.39,0,0,0,7,43a13.14,13.14,0,0,1,2.14-3c.13-.11.18-.58.09-.64-1.05-.77-1.46-2-2.18-3-.29-.4-.59-1-.21-1.46a14.31,14.31,0,0,1,3.77-3.19A13,13,0,0,1,15,30.27a1.14,1.14,0,0,0,.74-.45c.07-.16-.15-.54-.32-.74-.71-.83-1.46-1.62-2.15-2.45-.14-.17-.21-.59-.1-.71A20.19,20.19,0,0,1,15,24.06a1.14,1.14,0,0,1,.72-.16c1.35,0,2.7,0,4.06,0,.19,0,.54-.08.56-.17a1.08,1.08,0,0,0-.14-.71c-.62-.82-1.28-1.6-1.92-2.41-.1-.14-.22-.38-.17-.5a.66.66,0,0,1,.48-.25c.89-.1,1.78-.19,2.68-.25.44,0,.63-.24.57-.64a1.53,1.53,0,0,1,.64-1.44c.29-.26.57-.55.84-.84a1.73,1.73,0,0,1,1.28-.51,43.62,43.62,0,0,1,7.66.48c.42.07.62-.1.57-.51s-.2-1.09-.22-1.64c0-1.52,0-3,0-4.58a.72.72,0,0,1,.77-.79,4.64,4.64,0,0,1,1.22.2,12.88,12.88,0,0,0,4.56.92,8.2,8.2,0,0,1,3.7.38c.65.26,1.11,0,1.57-.63a12.67,12.67,0,0,1,1.43-1.58c.61-.54,1.24-1,2.16-.47a1.36,1.36,0,0,0,1.73-.39,14.35,14.35,0,0,1,1.52-1.5,1.13,1.13,0,0,1,.91-.21A25.3,25.3,0,0,1,54.81,7c1,.48,1.75,1.4,3,1.21.12,0,.27.15.4.24a1.45,1.45,0,0,0,2.11-.06,2.53,2.53,0,0,1,.52-.26A11.29,11.29,0,0,0,63.26,7a14.43,14.43,0,0,1,3.17-1.85c1.14-.51,1.65-.43,2.26.46.19.29.15.73.31,1.06a20.72,20.72,0,0,0,1.23,2.39,9.61,9.61,0,0,1,1.29,3.77c.1.62.38.88,1,.73A7.75,7.75,0,0,0,73.67,13a43.71,43.71,0,0,1,4.08-1.82,19,19,0,0,1,3.76-.77,15.23,15.23,0,0,1,3,0,.9.9,0,0,1,.87,1.2,12.18,12.18,0,0,0-.52,2.51,12.59,12.59,0,0,1-.67,4.34,4.78,4.78,0,0,0-.29,1.32c0,.33.08.55.48.45.61-.15,1.23-.28,1.84-.45a12.16,12.16,0,0,1,2.16-.59c1.74-.12,3.49-.13,5.24-.11a8.32,8.32,0,0,1,2.11.29c.91.25,1.77.67,2.67.93a2.25,2.25,0,0,1,1.49,1.45c0,.19.28.35.45.49s.61.39.91.59a7.61,7.61,0,0,1-.51.75c-.85.94-1.73,1.85-2.57,2.79-.4.45-.28,1.15.15,1.29,1,.34,2.06.77,3.11,1.05A4.92,4.92,0,0,1,103.37,30a4.59,4.59,0,0,0,1.26.85,23.48,23.48,0,0,1,5.2,2.43c.55.39,1.19.79,1.3,1.56a2.1,2.1,0,0,0,.68,1.4c.31.25.28.55,0,.81s-.73.65-1.12,1-.33.72,0,.83a13.16,13.16,0,0,0,2.25.67c.6.11,1.24,0,1.85,0a8.14,8.14,0,0,1,4.1,1.16"/></svg>